<?xml version="1.0" encoding="UTF-8" standalone="no"?>
<!-- Created with Inkscape (http://www.inkscape.org/) -->

<svg
   width="6.291256in"
   height="1.6975106in"
   viewBox="0 0 603.96057 162.96102"
   version="1.1"
   id="svg5"
   inkscape:version="1.2.1 (9c6d41e410, 2022-07-14)"
   sodipodi:docname="logo_sm.svg"
   xml:space="preserve"
   xmlns:inkscape="http://www.inkscape.org/namespaces/inkscape"
   xmlns:sodipodi="http://sodipodi.sourceforge.net/DTD/sodipodi-0.dtd"
   xmlns="http://www.w3.org/2000/svg"
   xmlns:svg="http://www.w3.org/2000/svg"><sodipodi:namedview
     id="namedview7"
     pagecolor="#ffffff"
     bordercolor="#000000"
     borderopacity="0.25"
     inkscape:showpageshadow="2"
     inkscape:pageopacity="0.0"
     inkscape:pagecheckerboard="0"
     inkscape:deskcolor="#d1d1d1"
     inkscape:document-units="in"
     showgrid="false"
     inkscape:zoom="0.81818182"
     inkscape:cx="344.66667"
     inkscape:cy="171.72222"
     inkscape:window-width="1920"
     inkscape:window-height="1017"
     inkscape:window-x="0"
     inkscape:window-y="0"
     inkscape:window-maximized="1"
     inkscape:current-layer="layer1" /><defs
     id="defs2" /><g
     inkscape:label="Layer 1"
     inkscape:groupmode="layer"
     id="layer1"
     transform="translate(-106.10535,-66.329353)"><rect
       style="fill:#80e5ff;stroke:#c6c6c6;stroke-width:0;stroke-linejoin:round;stroke-dasharray:none;stroke-opacity:1;paint-order:markers stroke fill"
       id="rect1097"
       width="555.00165"
       height="150.84657"
       x="129.08743"
       y="69.962791"
       ry="75.423286" /><g
       id="g877"
       style="stroke:#c6c6c6;stroke-width:0;stroke-dasharray:none;stroke-opacity:1"
       inkscape:export-filename="logo_sm.png"
       inkscape:export-xdpi="63.369999"
       inkscape:export-ydpi="63.369999"
       transform="matrix(0.73065216,0,0,0.73065216,108.41961,39.388487)"><text
         xml:space="preserve"
         style="font-style:normal;font-variant:normal;font-weight:normal;font-stretch:normal;font-size:90.3133px;font-family:'Averia Serif Libre';-inkscape-font-specification:'Averia Serif Libre, Normal';font-variant-ligatures:normal;font-variant-caps:normal;font-variant-numeric:normal;font-variant-east-asian:normal;letter-spacing:-2.86575px;word-spacing:0px;fill:#000000;stroke:#c6c6c6;stroke-width:0;stroke-linejoin:round;stroke-dasharray:none;stroke-opacity:1;paint-order:markers stroke fill"
         x="101.39432"
         y="163.77588"
         id="text236"
         inkscape:export-filename="text236.png"
         inkscape:export-xdpi="300"
         inkscape:export-ydpi="300"><tspan
           sodipodi:role="line"
           x="101.39432"
           y="163.77588"
           id="tspan238"
           style="stroke:#c6c6c6;stroke-width:0;stroke-linejoin:round;stroke-dasharray:none;stroke-opacity:1;paint-order:markers stroke fill"
           dx="0"
           rotate="2 355 0 2.5999999 357.70001 0 4.5999999 357.70001 0"
           dy="0 0 -6.5597467 2.6504028 3.9093471 -3.4123936 5.7314959 -2.3191051">R<tspan
   style="letter-spacing:-6.52662px;stroke:#c6c6c6;stroke-width:0;stroke-linejoin:round;stroke-dasharray:none;stroke-opacity:1;paint-order:markers stroke fill"
   id="tspan1030">AG</tspan><tspan
   style="letter-spacing:-0.13252px;stroke:#c6c6c6;stroke-width:0;stroke-linejoin:round;stroke-dasharray:none;stroke-opacity:1;paint-order:markers stroke fill"
   id="tspan1164">T</tspan>I<tspan
   style="letter-spacing:-7.55365px;stroke:#c6c6c6;stroke-width:0;stroke-linejoin:round;stroke-dasharray:none;stroke-opacity:1;paint-order:markers stroke fill"
   id="tspan1198">M</tspan>ER</tspan></text><g
         id="g1405"
         transform="translate(568.62803,64.647357)"
         style="stroke:#c6c6c6;stroke-width:0;stroke-linejoin:round;stroke-dasharray:none;stroke-opacity:1;paint-order:markers stroke fill"><path
           d="m 69.6,60.72 c 0.726,0.363 -0.199,1.053 0,1.68 -0.726,-0.363 0.199,-1.053 0,-1.68 z"
           fill-rule="evenodd"
           id="path1291"
           style="stroke:#c6c6c6;stroke-width:0;stroke-linejoin:round;stroke-dasharray:none;stroke-opacity:1;paint-order:markers stroke fill" /><path
           d="m 40.32,66.48 c -0.527,0.733 -1.537,-0.277 0,0 z"
           fill-rule="evenodd"
           id="path1293"
           style="stroke:#c6c6c6;stroke-width:0;stroke-linejoin:round;stroke-dasharray:none;stroke-opacity:1;paint-order:markers stroke fill" /><path
           d="m 40.56,66.96 c -0.041,-0.521 0.851,-0.109 1.2,-0.24 0.04,0.52 -0.851,0.109 -1.2,0.24 z"
           fill-rule="evenodd"
           id="path1295"
           style="stroke:#c6c6c6;stroke-width:0;stroke-linejoin:round;stroke-dasharray:none;stroke-opacity:1;paint-order:markers stroke fill" /><path
           d="m 65.04,69.36 c -1.048,-0.328 -0.511,0.93 -1.44,0.72 0.054,-0.986 1.259,-0.821 1.2,-1.92 0.52,-0.04 0.109,0.851 0.24,1.2 z"
           fill-rule="evenodd"
           id="path1297"
           style="stroke:#c6c6c6;stroke-width:0;stroke-linejoin:round;stroke-dasharray:none;stroke-opacity:1;paint-order:markers stroke fill" /><path
           d="m 34.8,75.12 c -0.527,0.733 -1.537,-0.277 0,0 z"
           fill-rule="evenodd"
           id="path1299"
           style="stroke:#c6c6c6;stroke-width:0;stroke-linejoin:round;stroke-dasharray:none;stroke-opacity:1;paint-order:markers stroke fill" /><path
           d="m 49.44,78.24 c -0.527,0.733 -1.537,-0.277 0,0 z"
           fill-rule="evenodd"
           id="path1301"
           style="stroke:#c6c6c6;stroke-width:0;stroke-linejoin:round;stroke-dasharray:none;stroke-opacity:1;paint-order:markers stroke fill" /><path
           d="m 74.88,99.12 c 0.03,-0.53 1.019,-0.103 1.44,-0.24 -0.03,0.53 -1.018,0.102 -1.44,0.24 z"
           fill-rule="evenodd"
           id="path1303"
           style="stroke:#c6c6c6;stroke-width:0;stroke-linejoin:round;stroke-dasharray:none;stroke-opacity:1;paint-order:markers stroke fill" /><path
           d="M 71.28,99.36 C 71.185,98.895 72.373,99.01 72,99.6 h -0.48 c 0.044,-0.204 -0.094,-0.226 -0.24,-0.24 z"
           fill-rule="evenodd"
           id="path1305"
           style="stroke:#c6c6c6;stroke-width:0;stroke-linejoin:round;stroke-dasharray:none;stroke-opacity:1;paint-order:markers stroke fill" /><path
           d="m 13.44,130.8 c -0.11,-0.995 1.989,-1.847 2.64,-2.88 0.215,1.1 -1.711,2.125 -2.64,2.88 z"
           fill-rule="evenodd"
           id="path1307"
           style="stroke:#c6c6c6;stroke-width:0;stroke-linejoin:round;stroke-dasharray:none;stroke-opacity:1;paint-order:markers stroke fill" /><path
           d="m 16.08,129.12 c 0.023,1.228 -2.15,2.327 -3.6,2.88 0.896,-1.265 2.562,-1.758 3.6,-2.88 z"
           fill-rule="evenodd"
           id="path1309"
           style="stroke:#c6c6c6;stroke-width:0;stroke-linejoin:round;stroke-dasharray:none;stroke-opacity:1;paint-order:markers stroke fill" /><path
           d="m 85.2,142.56 c 0.04,0.521 -0.852,0.109 -1.2,0.24 0.024,-0.611 0.895,-0.567 1.2,-0.24 z"
           fill-rule="evenodd"
           id="path1311"
           style="stroke:#c6c6c6;stroke-width:0;stroke-linejoin:round;stroke-dasharray:none;stroke-opacity:1;paint-order:markers stroke fill" /><path
           d="m 87.36,151.92 c 0.954,-1.205 1.295,-3.025 2.64,-3.84 -0.416,1.743 -1.077,3.242 -2.64,3.84 z"
           fill-rule="evenodd"
           id="path1313"
           style="stroke:#c6c6c6;stroke-width:0;stroke-linejoin:round;stroke-dasharray:none;stroke-opacity:1;paint-order:markers stroke fill" /><path
           d="m 97.92,139.44 c 1.041,0.978 -0.011,3.618 0.48,5.279 -0.516,0.364 -0.718,1.043 -1.681,0.96 0.144,1.344 -0.902,1.498 -1.2,2.4 0.25,1.689 0.123,2.005 -0.479,3.12 1.823,-1.137 2.257,-3.663 4.08,-4.8 -0.162,0.638 -0.378,1.222 -0.72,1.68 0.058,0.618 0.412,-0.33 0.96,0 -0.465,0.976 -1.137,1.744 -1.681,2.64 0.708,-0.492 1.711,-0.689 2.641,-0.96 -0.428,3.253 -3.231,4.129 -6.48,4.561 -0.774,0.215 -0.337,-0.783 -0.72,-0.96 -0.749,0.291 -0.996,1.084 -2.16,0.96 0.063,-1.573 -0.618,-2.813 0.48,-3.601 -1.057,-0.885 0.353,-3.561 -1.2,-4.319 -1.226,0.215 -1.101,1.779 -2.641,1.68 -1.201,1.886 -0.915,3.275 -1.439,5.28 1.49,0.168 2.211,-2.398 3.6,-3.12 -0.815,1.441 0.037,1.755 -0.96,2.64 0.309,0.671 0.496,-0.756 1.2,-0.479 -0.388,0.571 -0.862,1.058 -1.2,1.68 0.193,-0.127 0.39,-0.25 0.72,-0.24 -0.627,1.447 -3.512,3.134 -5.279,1.68 -0.73,0.229 -0.966,0.955 -2.16,0.721 -0.479,-0.499 -0.877,-2.483 0,-2.88 -0.495,-1.479 -0.099,-3.288 -1.44,-4.32 -0.658,-0.951 0.835,-1.384 -0.479,-1.68 0.204,-0.704 0.604,0.312 1.2,0 0.123,-0.716 -1.585,-1.957 -1.44,-0.48 -0.906,-0.63 0.128,-2.927 -0.24,-4.56 -1.757,-2.163 -5.437,-2.403 -7.439,-4.32 -0.355,-1.074 0.702,-0.737 0.479,-1.68 1.334,-0.054 1.826,0.734 2.88,0.96 -0.962,-0.958 -2.332,-1.509 -3.84,-1.92 -0.172,2.983 -1.269,8.911 1.92,9.84 0.131,2.658 0.26,3.892 -0.239,6.479 -0.284,0.276 -0.849,0.271 -1.44,0.24 -1.221,1.146 -0.151,3.981 -0.96,5.04 -0.129,1.089 1.279,0.641 1.2,1.68 1.946,-1.333 3.062,-3.496 5.04,-4.8 -0.963,1.118 -1.403,2.757 -2.641,3.601 1.037,-0.088 2.174,-2.145 2.88,-3.36 -0.164,2.157 -2.807,3.912 -4.319,5.52 1.234,-0.525 2.148,-1.371 3.12,-2.159 -1.008,2.147 -3.699,3.796 -7.68,4.079 -1.342,-0.792 0.045,-2.874 -0.96,-3.84 1.188,-0.621 0.976,2.219 1.92,2.641 0.834,-0.605 0.363,-2.517 1.2,-3.12 -0.947,-0.308 -0.581,0.699 -1.2,0.72 -0.512,0.112 -0.457,-0.343 -0.48,-0.72 -1.206,0.165 -1.937,-0.144 -2.64,-0.48 0.114,-1.388 0.508,-2.838 -0.24,-3.84 -1.154,0.184 -2.082,0.081 -2.88,0.48 -0.454,0.228 -0.523,1.463 -1.44,0.96 -0.348,1.127 -1.075,2.058 -1.2,3.12 -0.199,1.689 0.813,2.85 0.96,4.56 0.949,-0.011 1.392,-0.528 2.16,-0.72 -0.104,-0.356 -0.307,0.095 -0.72,0 0.306,-0.734 1.374,-0.706 1.68,-1.44 -0.104,-0.356 -0.307,0.095 -0.72,0 0.3,-0.899 1.343,-1.057 1.68,-1.92 0.203,0.521 -0.049,1.749 -0.24,2.16 -0.395,0.854 -1.861,1.283 -0.96,1.68 -0.166,0.475 -0.64,0.64 -1.2,0.721 0.32,0.608 1.065,-0.353 1.68,-0.24 -1.635,1.484 -4.352,1.888 -6.96,2.399 -0.551,-0.409 -1.031,-0.889 -1.44,-1.439 0.438,-1.649 0.339,-1.739 -0.24,-3.12 1.007,0.673 1.644,1.716 1.92,3.12 0.853,-0.478 0.071,-1.099 0.24,-2.16 0.404,-0.476 1.103,-0.657 1.68,-0.96 -0.73,-0.107 -3.5,0.28 -4.08,-0.72 0.168,-2.164 -0.044,-5.39 -2.16,-6 0.655,-2.042 -0.134,-2.573 0,-5.04 1.564,0.044 0.099,-1.864 1.68,-0.96 -0.085,-0.315 -0.423,-0.378 -0.48,-0.721 -0.917,-0.197 -0.283,1.157 -1.2,0.96 v -4.08 c 0.823,-0.776 2.458,-0.741 2.16,-2.64 -2.118,0.563 -5.003,0.308 -6.72,-1.2 -0.868,0.412 -0.636,1.925 -1.68,2.16 -1.218,0.259 -1.477,-0.443 -1.92,-0.96 -0.061,-0.86 0.721,-0.879 0.72,-1.68 -0.085,-0.315 -0.422,-0.378 -0.48,-0.72 -0.952,1.024 -4.24,1.584 -4.8,-0.24 -0.524,-1.337 2.661,-0.204 1.68,-1.2 0.218,-0.651 0.841,0.244 1.2,0.24 0.613,-1.044 -1.292,-1.105 -1.44,-0.96 1.125,-2.252 -1.403,-4.062 0.24,-5.521 -2.481,-1.839 -6.325,-2.314 -9.84,-3.12 -0.915,0.045 -0.581,1.34 -1.44,1.44 -0.779,0.139 -1.117,-0.163 -1.68,-0.24 -0.276,-0.283 -0.271,-0.849 -0.24,-1.439 -2.126,-0.487 -5.615,0.068 -7.92,-0.24 -0.375,1.046 -2.329,1.588 -1.44,3.12 1.254,-0.106 1.69,-1.03 2.88,-1.2 -0.394,0.566 -1.236,0.684 -1.68,1.2 1.661,-0.18 2.572,-1.108 3.6,-1.92 0.427,0.176 0.034,0.436 0,0.72 0.8,0.001 0.819,-0.781 1.68,-0.72 -1.699,1.42 -3.757,2.482 -6,3.359 -1.464,-0.743 -1.451,-0.434 -3.36,-0.24 -0.997,-1.337 0.003,-2.701 -0.72,-3.84 -0.789,-1.241 -2.879,-0.943 -3.6,-2.399 -0.341,1.419 -1.241,2.279 -0.96,4.319 -0.521,0.92 -1.253,1.627 -1.2,3.12 1.634,0.467 3.135,-1.148 4.56,-1.68 -1.167,2.692 -5.066,3.458 -7.44,1.92 -0.117,-1.236 0.183,-2.058 0.96,-2.4 -0.555,-2.644 -2.908,-5.383 -2.4,-8.64 0.157,-1.006 0.727,-1.659 1.2,-2.64 0.075,-5.675 -0.424,-10.775 -0.24,-16.561 0.13,-0.85 -0.85,-0.59 -0.72,-1.439 0.053,-0.907 0.754,-1.166 0.96,-1.92 -0.4,-0.05 -0.38,-1.525 -0.48,-1.681 -0.097,-0.151 -0.606,-0.065 -0.96,-0.479 -0.148,-0.174 -0.064,-0.841 -0.24,-0.96 -0.265,-0.18 -0.894,0.111 -1.2,0 -0.181,-0.065 -0.315,-0.654 -0.48,-0.721 -0.792,-0.313 -1.689,-0.338 -2.16,-1.199 0.22,-2.531 -2.025,-4.243 -0.24,-6.24 0.087,-3.929 -0.454,-6.745 2.16,-8.16 2.58,-1.396 6.433,-1.22 7.2,-4.56 0.735,-3.197 -1.767,-5.834 -0.48,-9.6 6.379,0.271 11.929,-1.754 18.48,-0.96 0.465,0.057 0.764,-0.055 0.72,0.48 1.261,-2.818 2.008,-6.152 2.88,-9.36 -1.443,3.162 -1.518,5.383 -2.4,7.44 -0.853,1.987 -0.061,-0.867 0.24,-1.92 1.062,-3.725 2.121,-7.673 3.6,-11.52 3.28,-0.16 5.789,0.451 8.88,0.48 14.126,-16.274 28.1,-32.7 42.48,-48.72 9.229,0.85 18.12,2.04 27.12,3.12 -1.516,2.836 -4.197,4.63 -6.48,6.72 -2.291,2.098 -4.057,4.751 -6.72,6.48 -0.516,1.084 -1.506,1.693 -2.16,2.64 -0.171,1.039 0.29,1.93 0.721,2.64 2.57,4.243 14.366,6.07 22.08,6.48 2.204,0.117 4.33,-0.017 6.239,0.24 5.192,0.699 12.086,2.854 11.761,7.92 -0.058,0.895 -1.053,3.212 -1.44,3.84 -0.321,0.521 -1.199,1.391 -1.68,1.92 -2.3,2.531 -5.703,4.661 -9.12,6.72 -7.271,4.381 -16.862,8.788 -26.16,10.8 13.949,0.931 29.585,0.175 41.28,3.36 0.352,4.609 -0.665,11.289 -0.721,16.56 -0.165,0.645 0.496,0.464 0.721,0.72 -0.829,1.343 -0.469,2.4 -0.96,4.08 1.743,1.742 -0.215,3.931 -0.48,5.28 -0.817,0.223 -1.407,0.672 -2.64,0.479 -0.582,0.139 -0.534,0.906 -0.721,1.44 -1.224,-0.265 -1.214,0.706 -1.68,1.2 0.057,0.743 0.668,0.932 0.96,1.439 -1.254,5.242 -0.622,11.196 -1.2,16.32 0.218,0.982 1.225,1.176 1.681,1.92 0.056,1.176 -0.423,1.817 -0.24,3.12 -0.984,0.587 -2.361,1.888 -1.68,3.36 -0.075,0.965 -1.217,0.863 -1.2,1.92 1.976,-0.633 2.803,-2.114 4.8,-2.16 0.043,0.843 -0.811,0.789 -0.96,1.439 0.679,0.198 0.622,-0.338 1.2,-0.239 -0.059,1.192 -1.893,1.09 -3.12,1.68 -1.096,0.526 -3.4,1.67 -5.04,0 1.002,-1.936 0.341,-5.301 -1.44,-6.48 -1.032,0.647 -0.554,2.807 -1.68,3.36 0.454,0.477 0.842,0.409 1.44,0.24 -0.78,0.955 -3.599,1.7 -4.801,0.72 0.602,-2.027 1.408,-4.416 -1.199,-5.52 v -4.08 c 0.463,-0.417 1.216,-0.544 1.68,-0.96 0.434,-3.312 -0.086,-9.426 0.479,-14.4 0.13,-0.93 -0.611,-0.988 -0.72,-1.68 0.042,-0.839 0.553,-1.208 1.2,-1.44 -0.428,-0.818 -0.37,-1.394 -0.72,-1.92 -0.188,-0.282 -1.258,0.003 -0.721,-0.96 -1.805,-0.045 -3.085,0.435 -4.8,0.48 0.027,0.612 0.44,0.84 0.72,1.199 -0.283,0.356 -0.207,1.072 -0.96,0.96 0.783,4.773 -0.211,9.056 0,14.4 0.234,0.807 0.884,1.197 1.44,1.68 -0.14,1.141 -0.347,2.214 -0.24,3.601 -1.78,0.779 -1.577,3.542 -2.88,4.8 0.771,-0.034 2.878,-0.799 4.32,-0.96 -0.886,1.896 -5.069,3.58 -6.96,2.16 -0.175,-1.913 1.459,-1.537 0.479,-3.12 -1.06,0.179 -4.654,3.068 -6.239,1.2 -0.552,-0.622 0.487,-1.108 0.72,-1.681 -0.484,-1.595 -0.161,-3.999 -1.681,-4.56 v -3.36 c 0.799,-0.081 0.852,-0.909 1.44,-1.2 0.27,-4.219 0.287,-9.941 0.24,-13.68 -0.562,0.079 -0.992,0.288 -1.44,0.48 v 4.8 c 0.354,1.085 1.306,1.575 0.96,3.359 -1.171,0.67 -2.163,1.517 -3.84,1.681 0.138,1.418 -0.25,2.31 -1.439,2.399 0.589,3.79 -2.227,4.174 -4.561,5.04 v 1.681 c -1.034,0.085 -1.607,0.632 -2.16,1.199 -0.205,1.203 0.693,2.334 0.48,3.36 -0.669,3.23 -0.721,10.315 -0.96,15.36 -0.191,4.038 -0.816,6.429 1.2,7.68 -0.489,0.923 -0.441,0.97 0.479,0.482 z M 73.2,158.88 c 0.545,0.043 1.398,-0.811 0.96,-0.96 -0.218,0.423 -0.884,0.396 -0.96,0.96 z m -18,-15.6 c 0.392,-0.175 1.044,0.477 0.48,0.479 -0.355,-0.125 -0.605,-0.354 -0.96,-0.479 0.056,0.744 0.851,0.749 1.44,0.96 -0.146,-0.574 0.301,-1.741 -0.24,-1.92 -0.07,0.49 -0.649,0.471 -0.72,0.96 z m -8.16,-4.56 c -0.08,-0.56 -0.246,-1.034 -0.72,-1.2 0.054,0.454 -0.271,0.53 -0.24,0.961 0.454,-0.055 0.529,0.269 0.96,0.239 z m -1.68,-5.28 c -0.013,0.395 -0.464,1.772 0,2.399 0.325,-1.027 0.721,-1.891 0.72,-2.64 1.515,1.078 3.882,1.93 5.52,3.12 0.621,0.451 0.665,1.031 1.44,1.199 0.928,0.202 1.803,-0.497 2.88,-0.479 0.038,0.282 -0.041,0.682 0.24,0.72 -0.138,-0.422 0.29,-1.41 -0.24,-1.439 -2.037,0.991 -4.729,0.718 -5.28,-1.44 -1.978,-0.12 -3.214,-1.52 -4.8,-2.16 -1.054,-0.426 -2.253,-0.421 -3.36,-0.96 0.135,1.545 2.228,0.319 2.88,1.68 z M 105.6,5.04 c 2.127,0.313 4.445,1.061 6,0.24 -8.203,-0.917 -16.836,-2.683 -25.2,-2.64 6.222,0.84 13.088,1.5 19.2,2.4 z M 55.92,39.12 C 59.302,35.253 62.831,31.461 66.24,27.6 69.657,23.73 72.843,19.669 76.32,15.84 79.76,12.051 83.495,8.379 86.4,4.08 86.346,3.893 86.199,3.801 85.92,3.84 73.971,17.058 61.762,31.437 50.16,44.88 c -1.31,1.518 -2.739,2.896 -3.84,4.32 -0.119,0.154 -1.434,1.011 -0.48,1.44 3.78,-3.435 6.711,-7.669 10.08,-11.52 z M 98.64,6.96 C 99.053,6.547 97.256,4.492 96.481,4.8 97.223,4.641 98.627,6.974 98.64,6.96 Z m 0.48,1.68 C 99.095,8.025 98.984,7.496 98.64,7.2 c 0.059,0.444 0.243,1.966 0.48,1.44 z m -0.96,8.64 c -0.083,-0.662 0.688,-1.685 0,-2.16 0.319,0.898 -0.716,1.659 0,2.16 z m -0.24,1.92 v -1.68 c -0.536,0.104 -0.097,1.183 -0.24,1.68 -0.566,0.476 0.022,0.476 0.24,0 z M 81.6,20.4 c 0.396,0.004 0.135,0.666 0.48,0.72 -0.259,-0.613 1.033,-0.84 0.24,-1.2 -0.004,0.396 -0.666,0.134 -0.72,0.48 z m 2.4,5.28 c -0.116,-0.284 -0.256,-0.544 -0.48,-0.72 -0.037,0.321 0.377,1.323 0.48,0.72 z m 0.24,1.68 c 0.008,0.024 0.218,-0.019 0.24,0 0.933,1.316 -0.806,-1.699 -0.24,0 z m 0.48,0.72 c 0.586,1.495 0.714,3.446 1.681,4.56 -0.545,-1.537 -0.839,-3.323 -1.681,-4.56 z m 2.16,5.28 c -0.317,-0.002 -0.22,-0.42 -0.479,-0.48 0.621,2.308 1.695,4.394 0.479,0.48 z m 12.96,34.32 v -2.16 c -3.217,-3.58 -4.123,-8.779 -6,-13.44 -1.921,-4.77 -3.685,-9.608 -5.52,-14.16 0.229,-0.997 -0.719,-0.048 0,0 2.579,9.021 6.438,16.762 8.64,26.16 0.004,0.396 0.666,0.134 0.72,0.48 0.192,0.833 -0.357,0.922 -0.239,1.68 1.705,1.254 1.202,4.718 2.399,6.48 h 2.4 c 0.172,-1.728 -1.271,-3.823 -2.4,-5.04 z M 37.44,51.6 c 2.768,0.488 7.41,0.93 9.12,0.48 -0.497,-0.143 -1.577,0.296 -1.68,-0.24 1.345,-0.145 2.273,0.127 3.12,0.48 1.054,-0.813 3.156,-0.478 3.84,-2.16 -0.199,1.064 0.628,1.734 -0.24,2.64 0.077,-0.556 -0.039,-0.921 -0.24,-1.2 -0.896,-0.096 -1.408,0.192 -1.44,0.96 0.773,0.443 1.394,-0.45 1.2,0.96 -0.872,-0.98 -1.176,0.288 -1.92,-0.48 -0.553,0.692 0.454,0.754 0.48,1.2 0.008,0.14 -1.257,0.521 -0.24,0.96 -0.592,-0.032 -1.156,-0.037 -1.44,0.24 0.433,0.848 0.76,1.8 1.68,2.16 -0.207,-1.367 0.249,-3.15 0.96,-3.84 0.378,0.022 0.188,0.612 0.72,0.48 0.579,-0.942 1.106,-1.935 1.68,-2.88 -0.254,1.279 0.505,0.06 0.72,0.72 -0.19,0.529 -1.128,0.312 -1.2,0.96 3.371,-0.087 7.186,0.804 10.8,0.72 -1.732,-0.667 -4.323,-0.477 -6.24,-0.96 1.274,-0.41 2.786,-0.125 4.08,0 2.893,0.28 6.418,1.328 8.64,1.2 0.451,-0.026 1.444,-0.025 1.68,-0.72 -0.335,-0.817 -1.027,-0.186 -1.68,-0.24 -3.745,-0.309 -8.981,-1.054 -13.2,-1.2 -0.624,-0.096 -0.724,-0.716 -1.44,-0.72 -0.454,-0.054 -0.53,0.271 -0.96,0.24 -0.493,-0.227 -0.204,-1.236 -0.96,-1.2 -0.783,0.477 0.849,0.549 0,0.96 h -0.72 c 0.397,-1.143 -0.11,-0.886 -0.24,-1.92 -1.228,0.452 -1.65,1.709 -2.88,2.16 -1.967,-0.505 -4.535,-0.246 -7.2,-0.48 -2.394,-0.21 -5.33,-0.544 -7.44,-0.72 0.304,0.806 -0.939,1.27 -0.24,1.68 0.409,-0.151 0.395,-0.725 0.72,-0.96 2.186,0.449 6.34,0.374 9.12,0.96 -2.554,0.311 -5.162,-0.595 -6.96,-0.24 z m -1.68,3.12 c 1.006,-0.576 0.429,0.321 0.96,0.72 0.266,-0.667 0.438,-2.03 -0.48,-2.16 -0.138,0.502 -0.595,0.685 -0.48,1.44 z m 35.52,6.24 c 0.077,-1.318 -0.533,-0.394 -0.72,0 0.452,-2.667 1.239,-5.001 1.68,-7.68 -1.05,0.151 -0.458,1.942 -1.2,2.4 -0.174,-0.734 0.414,-0.706 0.24,-1.44 -1.148,-0.176 -0.728,1.307 -0.96,2.16 -1.002,3.688 -2.14,8.978 -3.12,12.24 -0.398,1.324 -0.819,3.336 0.96,3.6 -0.365,-1.601 -1.501,-2.551 -0.24,-4.08 0.182,0.838 -0.727,1.812 0,2.4 1.063,-2.937 1.574,-6.426 2.64,-9.36 -0.208,1.133 1.594,1.111 2.16,0.72 0.348,-0.907 -0.659,-0.46 -0.479,-1.2 0.569,-0.248 2.404,-1.462 1.439,-1.68 -0.791,0.649 -1.327,1.552 -2.4,1.92 z m -2.4,9.84 c -0.396,-0.003 -0.134,-0.666 -0.48,-0.72 -0.5,0.186 0.177,1.443 0.48,0.72 z m 20.4,-8.4 c 0.325,-0.022 3.258,-0.083 1.68,-0.24 -4.258,-0.425 -8.641,0.219 -12.24,0.48 -3.366,0.244 -7.341,-0.533 -8.64,0.96 5.827,-0.463 15.466,-0.946 19.2,-1.2 z M 64.56,54 c 1.611,-0.166 3.348,0.806 4.56,0.24 C 68.068,53.96 64.888,53.422 64.56,54 Z m -15.84,3.84 c -0.038,0.283 0.041,0.682 -0.24,0.72 0.107,-1.067 -0.17,-1.75 -0.48,-2.4 -1.021,-0.42 -3.062,0.182 -3.6,-0.72 0.877,0.163 1.745,0.335 2.88,0.24 0.061,-0.63 -0.479,-0.668 -0.72,-0.72 -2.724,-0.59 -6.543,-0.159 -9.36,-0.96 0.945,1.615 4.913,0.207 6,1.68 -1.897,0.052 -4.796,-1.168 -6.24,0 0.441,0.909 0.987,0.151 1.68,0 2.735,0.784 6.985,0.055 9.12,1.44 0.123,3.711 -2.212,7.022 -1.92,9.36 -0.378,-0.022 -0.188,-0.612 -0.72,-0.48 -0.218,0.422 -0.841,0.439 -1.2,0.72 -2.325,-1.042 -8.946,-0.497 -10.32,-2.64 0.133,-0.427 0.123,-0.997 0.48,-1.2 0.26,0.615 -0.729,1.144 0,1.44 0.585,-0.746 1.007,-2.381 0.24,-3.12 h 0.72 c -0.695,-2.162 1.126,-4.02 0.72,-5.76 -0.729,1.091 -1.05,5.113 -1.92,4.56 0.358,2.047 -1.082,4.133 -1.44,6.24 1.237,0.277 1.42,-0.5 2.16,-0.72 0.476,0.553 -0.061,0.267 -0.24,0.72 3.151,0.769 6.617,1.223 10.08,1.68 0.092,-0.475 0.093,-1.521 0.96,-0.96 -0.852,0.548 0.176,1.57 -1.2,1.68 1.715,0.423 1.322,-0.791 2.16,-0.24 -0.067,-0.547 0.058,-0.902 0.48,-0.96 -0.418,-0.826 0.263,-2.977 0.96,-2.64 -0.736,-2.334 1.518,-4.824 0.96,-6.96 z m -1.44,8.88 c -0.066,-0.421 0.676,-1.198 0,-1.44 0.26,0.615 -0.729,1.144 0,1.44 z M 48,64.08 c -0.082,-0.452 0.556,-1.749 0,-1.2 0.144,0.427 -0.704,0.997 0,1.2 z m 0.96,-3.6 c -0.082,-0.452 0.556,-1.749 0,-1.2 0.144,0.428 -0.704,0.997 0,1.2 z m 2.64,-2.4 c 1.07,0.27 -0.146,-1.746 1.2,-1.2 -0.349,1.096 -1.296,2.857 -0.96,3.84 0.746,-6.117 8.636,-1.927 13.68,-2.16 0.071,0.489 0.649,0.471 0.72,0.96 0.127,3.437 -1.533,5.595 -2.16,8.88 -1.165,-0.045 -0.839,1.401 -1.92,1.44 -3.837,-0.803 -8.26,-1.02 -11.52,-2.4 -0.054,0.187 -0.007,0.474 -0.24,0.48 0.328,1.019 1.246,0.567 1.92,0.72 3.067,0.697 7.029,1.513 10.32,1.68 0.462,-0.097 0.189,-0.93 0.96,-0.72 -0.684,0.766 -0.511,1.614 -0.72,2.4 0.418,-0.018 0.747,0.054 0.96,0.24 0.297,-0.777 -0.776,-0.184 -0.48,-0.96 0.507,-0.356 1.487,-0.05 1.68,-0.72 -0.003,-0.317 -0.421,-0.219 -0.48,-0.48 0.734,-0.393 0.961,-1.594 1.2,-2.4 0.93,-3.136 2.066,-7.245 1.92,-10.08 0.489,-0.481 0.639,-0.062 0.96,0.24 0.017,-0.897 -0.386,-1.374 -0.96,-1.68 -0.905,1.171 -4.079,-0.032 -5.04,0.48 1.027,0.418 3.337,0.269 3.84,0.48 -0.309,0.411 -0.496,0.944 -1.2,0.96 0.013,-0.307 0.308,-0.333 0.24,-0.72 -3.524,1.035 -9.187,-1.186 -12.48,-0.48 0.477,-0.862 -0.531,-0.861 -0.48,-1.92 -0.755,0.12 -0.938,-0.523 -1.44,0 0.556,1.098 0.039,0.912 0.48,3.12 z m 5.04,-2.16 c -1.88,-0.724 -1.046,0.51 0,0 z m -20.4,1.2 c -0.037,-0.597 0.377,-0.743 0.48,-1.2 -0.596,-0.169 -1.016,1.026 -0.48,1.2 z m 14.64,2.4 c -0.139,-0.641 0.71,-1.5 0,-1.92 0.277,0.78 -0.733,1.476 0,1.92 z m 42,0.72 c 0.187,0.054 0.474,0.006 0.48,0.24 -0.579,-0.098 -0.522,0.438 -1.2,0.24 -0.297,0.776 0.776,0.183 0.479,0.96 0.579,0.098 0.522,-0.438 1.2,-0.24 -0.66,-1.122 0.938,-1.039 0.96,-2.16 -1.14,-0.181 -1.314,0.605 -1.919,0.96 z M 50.4,61.2 c -0.066,-0.421 0.676,-1.198 0,-1.44 0.26,0.615 -0.729,1.144 0,1.44 z m 43.92,0.72 c -0.578,0.078 -2.743,-0.205 -2.16,0.24 1.021,-0.016 3.062,0.808 3.6,-0.24 -0.358,-0.041 -0.886,0.086 -0.96,-0.24 0.986,-0.192 0.377,-1.008 0,-1.44 -0.514,0.525 0.388,1.292 -0.48,1.68 z M 50.16,67.2 c 0.815,0.176 0.407,-0.859 0.48,-1.2 0.321,-1.502 0.94,-3.044 1.2,-4.56 -0.053,-0.187 -0.201,-0.279 -0.48,-0.24 -0.215,2.052 -1.38,4.343 -1.2,6 z m 0,-4.56 c -0.133,0.427 -0.124,0.997 -0.48,1.2 -0.038,-0.282 0.041,-0.681 -0.24,-0.72 -0.456,2.207 -1.521,3.134 -0.72,5.52 1.32,0.044 2.817,1.175 4.08,0.48 -1.3,0.02 -1.995,-0.564 -3.36,-0.48 0.054,-0.454 -0.271,-0.53 -0.24,-0.96 0.147,0.07 0.924,0.597 0.96,0 -2.011,-1.489 1.291,-4.454 -0.24,-6.24 -0.217,1.224 -0.293,1.348 0.24,1.2 z m 38.88,1.92 c 0.099,0.578 -0.438,0.521 -0.24,1.2 h 0.72 c 0.144,-1.088 -1.237,-2.442 -1.68,-1.44 0.556,-0.076 0.922,0.038 1.2,0.24 z m 5.76,0.24 c 0.591,-1.492 -0.752,-0.791 0,0 z m 44.64,0.48 c -2.094,1.224 -6.022,0.877 -9.601,1.2 -5.792,0.523 -12.194,0.864 -17.52,1.2 -3.776,0.238 -8.205,-0.312 -10.32,2.16 0.503,1.337 2.258,1.423 3.84,1.68 0.771,0.269 1.022,1.058 1.92,1.2 0.454,-2.166 -4.354,-1.063 -4.8,-3.12 3.588,-1.716 9.918,-1.586 13.68,-1.68 5.909,-0.147 12.785,-0.676 18,-1.2 1.112,-0.112 2.493,-0.215 3.601,-0.48 0.629,-0.151 2.417,-0.244 2.16,-1.44 -0.827,-0.889 -0.737,0.35 -0.96,0.48 z M 83.52,66 c 1.256,-0.424 3.83,0.469 3.841,-1.2 -0.798,0.883 -2.815,0.546 -3.841,1.2 z m 17.04,-0.96 c 0.389,0.972 1.728,0.248 2.641,0.24 4.492,-0.041 10.814,0.229 14.16,0.24 -5.061,-0.827 -12.024,-0.745 -16.801,-0.48 z m -75.6,0.48 h -1.2 c -0.569,-0.198 -1.105,0.338 -0.24,0.24 1.436,0.193 2.727,-0.188 3.84,-0.24 0.81,-0.038 2.043,0.372 2.4,-0.24 -1.711,-0.031 -3.395,-0.035 -4.8,0.24 z m 3.12,1.68 c -0.871,-0.231 -0.202,1.078 -0.96,0.96 -0.294,-0.077 -1.482,0.039 -0.72,0.24 0.359,0.041 0.886,-0.085 0.96,0.24 -0.757,0.373 -1.431,-0.292 -1.44,0.48 4.103,0.137 7.191,1.289 11.04,1.68 -0.009,0.704 1.426,-0.143 0.24,0 -2.427,-0.933 -5.863,-0.857 -8.16,-1.92 0.349,-0.131 1.24,0.281 1.2,-0.24 -0.619,-0.452 0.256,-2.347 -0.24,-3.12 -0.093,0.867 -0.318,1.602 -0.72,2.16 0.133,-1.489 -1.454,-0.125 -1.2,0.72 0.829,0.475 1.056,-0.817 1.2,-0.24 -0.177,1.737 -2.363,0.066 -1.2,-0.96 z m -13.2,-0.96 c 1.225,-0.135 3.086,0.366 3.6,-0.48 -1.032,0.328 -2.705,0.015 -3.6,0.48 z M 67.2,67.2 c -0.082,-0.452 0.555,-1.75 0,-1.2 0.143,0.427 -0.703,0.997 0,1.2 z m 15.84,-1.44 c -0.887,0.153 -2.391,-0.311 -2.88,0.24 0.887,-0.153 2.391,0.311 2.88,-0.24 z m 4.8,2.64 c 1.087,-0.034 0.612,-1.627 0.72,-2.64 H 87.84 Z M 118.08,66 c 1.641,1.767 -0.854,-0.92 0,0 z M 13.2,66.24 C 12.893,66.226 12.867,65.932 12.48,66 c -0.373,0.591 0.815,0.706 0.72,0.24 z M 75.36,66 c -0.729,0.029 -1.951,-0.036 -3.12,0 -0.944,0.029 -2.868,-0.387 -2.4,0.48 0.788,-0.502 4.086,0.102 5.52,-0.48 z m 18.24,0 c -1.01,0.069 -5.654,-0.071 -4.319,1.2 1.332,-1.528 5.152,-0.202 6.96,-0.96 C 95.399,66.056 94.263,65.955 93.6,66 Z m -80.88,3.36 c -0.178,-0.817 0.884,-0.396 0.96,-0.96 -0.895,0.254 -0.775,-0.505 -1.2,-0.72 -0.127,0.524 -0.581,1.552 0.24,1.68 z m -1.44,-3.12 c 0.074,1.206 -0.277,2.837 0.48,3.36 0.577,-0.037 0.515,-3.323 -0.48,-3.36 z m 71.52,0.48 c -0.497,0.143 -1.576,-0.297 -1.68,0.24 h 2.16 c 0.815,-0.385 3.024,-0.385 3.84,0 -0.537,-1.485 -3.15,-0.342 -4.32,-0.24 z m 17.76,0.72 c 0.139,-0.146 0.562,-1.138 0,-1.2 -0.138,0.146 -0.562,1.138 0,1.2 z m -63.36,0 c 1.967,0.355 4.703,1.214 6.48,0.96 -3.682,-0.638 -7.276,-1.364 -11.04,-1.92 0.775,0.886 3.166,0.876 4.56,0.96 z m 37.2,-0.48 c 0.255,0.01 0.609,-0.113 0.239,-0.24 h -5.28 c 1.013,1.261 3.264,-0.205 5.041,0.24 z m -3.84,0.96 c 2.475,0.438 6.042,-0.423 8.16,-0.72 0.587,-0.082 1.746,0.461 1.92,-0.48 -3.201,0.56 -7.178,0.342 -10.08,1.2 z m 27.36,-0.48 c -0.266,-0.105 -1.245,-1.06 -0.72,-0.48 0.213,0.157 0.731,1.574 0.72,0.48 z M 47.76,67.2 c -0.193,1.453 1.1,0.16 0,0 z m -28.08,0.72 c 0.731,0.293 -0.351,0.916 0.24,1.2 0.747,-0.613 3.012,0.292 3.36,-0.72 -0.577,-0.4 -3.399,0.04 -1.92,-0.96 -0.679,0.041 -1.647,-0.207 -1.68,0.48 z m 69.36,0.24 c 0.106,0.396 1.813,0.396 1.92,0 -0.789,0.289 -1.807,-1.142 -1.92,0 z m 5.52,0.24 c -0.45,0.811 -3.844,0.48 -5.52,0.48 -6.448,0 -13.184,-0.167 -16.56,0.48 6.643,0.16 18.67,-0.064 24.96,0 -0.135,-1.065 -2.355,-0.045 -2.641,-0.96 0.413,0.013 0.615,-0.185 0.72,-0.48 H 94.32 c -0.404,0.106 0.091,0.748 0.24,0.48 z m -1.2,-0.24 c -0.497,0.143 -1.577,-0.297 -1.681,0.24 0.498,-0.143 1.578,0.297 1.681,-0.24 z m 46.08,0.72 c -0.041,-0.324 1.22,-0.479 0.479,-0.72 0.042,0.325 -1.388,0.311 -0.479,0.72 z m -122.4,2.64 c -0.596,0.036 -0.996,-0.124 -1.2,-0.48 1.14,0.22 1.931,0.789 3.36,0.72 -0.477,0.554 0.06,0.267 0.24,0.72 2.147,0.333 4.131,0.829 6.24,1.2 -0.36,-0.684 -3.616,-0.542 -4.56,-1.44 4.018,1.022 8.514,1.566 12.24,2.88 -2.422,-0.22 -5.062,-1.496 -7.2,-1.2 10.719,2.321 21.387,4.693 32.16,6.96 0.569,0.198 1.105,-0.338 0.24,-0.24 -1.832,-0.568 -4.075,-0.725 -5.76,-1.44 3.797,0.843 8.06,1.22 11.28,2.64 -0.283,0.038 -0.681,-0.041 -0.72,0.24 1.12,0.24 0.832,1.888 1.44,2.64 0.058,-1.578 -0.422,-2.617 -0.24,-4.32 -6.486,-1.435 -12.887,-2.953 -19.68,-4.08 0.134,-0.489 0.722,-0.47 0.24,-0.96 -1.139,0.094 -1.174,0.049 -2.16,0.48 -9.92,-2 -20.555,-4.565 -30,-6.24 1.232,1.05 1.79,2.644 4.08,1.92 z M 21.6,70.8 c -0.146,-0.138 -1.139,-0.562 -1.2,0 0.596,-0.312 0.996,0.704 1.2,0 z m 31.92,-1.44 c -0.408,-0.054 -0.594,0.271 0,0.24 1.156,-0.029 2.621,0.889 3.6,0.24 -1.322,-0.038 -2.387,-0.333 -3.6,-0.48 z m 9.12,2.16 c -3.824,-0.337 -7.951,-1.648 -11.28,-1.68 3.598,0.563 7.679,1.921 11.28,1.68 z m 77.04,-0.96 c 0.041,-0.601 -0.368,-0.751 -0.72,-0.96 -0.067,0.628 0.088,1.032 0.72,0.96 z m -64.8,1.92 c -0.956,0.24 -1.69,-0.014 -2.16,0.24 4.794,1.319 10.394,-1.914 15.36,-0.48 0.747,0.213 0.704,1.215 1.439,1.44 2.756,-0.444 6.357,-0.043 8.641,-0.96 -2.8,0 -5.193,0.406 -8.16,0.24 -3.094,-3.051 -9.555,-0.757 -14.4,-0.72 -0.926,-0.599 -2.115,-2.198 -2.88,-2.16 0.955,0.566 1.397,1.643 2.16,2.4 z M 62.64,70.8 c -1.602,0.041 -4.539,-1.005 -5.04,-0.48 1.746,-0.063 3.451,1.183 5.04,0.48 z m 72.48,0 c 1.058,-0.037 0.067,0.679 0,0.96 h 0.96 c -0.032,-0.767 0.236,-1.836 -0.72,-1.68 0.01,0.33 -0.113,0.527 -0.24,0.72 z m -43.68,0 c 0.446,-0.033 0.802,-0.158 0.96,-0.48 -0.547,-0.067 -0.902,0.058 -0.96,0.48 z m 42.96,-0.48 c -1.537,-0.277 -0.527,0.733 0,0 z m -35.76,0.96 c -0.49,-0.857 -0.196,1.154 0.48,1.68 -0.147,-0.921 -0.385,-1.513 -0.48,-1.68 z m 17.52,0 c -0.816,0.348 -0.29,1.125 -0.24,1.92 0.596,-0.312 0.996,0.704 1.2,0 -0.428,-0.117 0.104,-0.256 0.24,-0.48 -0.53,-0.03 -0.103,-1.018 -0.24,-1.44 -0.663,-0.212 -2.554,-0.941 -1.92,0.24 -0.102,-0.387 0.895,-0.805 0.96,-0.24 z M 38.88,71.04 c -1.537,-0.277 -0.527,0.733 0,0 z M 48,72.72 c -3.054,-0.148 -5.907,-1.771 -8.88,-1.2 2.89,0.312 6.204,1.475 8.88,1.2 z m 86.16,-1.44 c -0.359,0.041 -0.886,-0.085 -0.96,0.24 1.307,0.275 1.567,1.675 0.96,-0.24 z m -66.72,2.16 c 0.47,0.033 1.139,1.071 0.48,1.44 0.035,-0.595 0.045,-1.165 -0.48,-1.2 -0.854,0.666 -2.999,0.041 -3.12,1.44 -0.076,-0.557 0.039,-0.921 0.24,-1.2 -1.063,0.755 -4.004,-0.052 -4.8,0.96 3.441,0.475 5.706,1.147 9.12,0.24 0.313,-1.018 -0.731,-1.901 0.24,-2.16 0.125,1.053 1.943,0.161 2.4,0 -1.139,-0.235 -1.261,-0.004 -2.4,-0.24 -0.143,-0.766 0.45,-0.743 0,-1.2 -0.976,-0.226 -0.832,1.3 -0.48,1.68 -0.349,0.131 -1.241,-0.281 -1.2,0.24 z m 2.16,-1.2 h 0.48 c -0.001,-0.241 0.194,-0.286 0.24,-0.48 -0.33,0.011 -0.527,-0.113 -0.72,-0.24 z m 55.44,-0.48 c -2.044,0.382 4.305,0.361 4.08,-0.24 -1.447,-0.007 -2.471,0.409 -4.08,0.24 z m -15.84,2.88 c 0.422,-0.138 1.41,0.29 1.439,-0.24 -0.283,-0.591 -0.906,0.492 -1.199,-0.24 0.026,-0.454 0.793,-0.167 0.72,-0.72 -1.268,-0.261 0.865,-1.174 0,-1.68 -0.158,0.322 -0.513,0.447 -0.96,0.48 -0.054,-0.187 -0.007,-0.474 -0.24,-0.48 0.631,1.455 -0.429,1.095 0.24,2.88 z M 123.6,72 c -2.927,-0.279 -2.073,0.711 0,0 z m -4.32,0.48 c 2.012,-0.278 -0.778,-0.693 -1.44,0.24 0.981,0.063 0.887,-0.163 1.44,-0.24 z M 66.24,89.04 c 0.455,-0.828 -0.277,0.185 -0.48,0.479 -0.74,1.074 -1.726,2.282 -2.16,3.12 0.776,-0.296 0.183,0.777 0.96,0.48 1.468,-0.934 2.956,-3.122 2.64,-5.04 -0.416,1.824 -1.004,3.476 -2.64,4.08 0.515,-1.084 1.433,-1.766 1.68,-3.119 z m 0.48,-6.48 c 2.896,4.997 -0.175,10.601 -3.6,12.48 -1.683,0.923 -4.321,1.152 -5.52,2.4 -0.563,0.915 -1.684,1.916 -1.92,2.159 -0.207,0.214 -1.061,0.717 0,0.721 -0.054,-0.408 0.271,-0.594 0.24,0 -0.5,1.819 -0.123,4.517 -0.24,6.72 13.09,-1.499 26.566,-3.843 38.879,-5.76 4.231,-0.659 8.726,-0.853 12.48,-2.641 -16.264,2.856 -33.206,5.034 -50.4,6.96 -0.035,-2.72 -0.182,-6.264 1.44,-7.68 1.056,-0.922 2.583,-0.679 3.84,-1.2 2.728,-1.131 5.708,-4.347 6.48,-6.96 1.027,-3.479 -1.332,-7.506 -0.24,-12.96 9.939,-0.781 20.993,-1.504 30.479,-2.4 3.3,-0.311 6.813,0.081 9.601,-1.44 -13.633,1.247 -27.796,1.964 -41.28,3.36 0.023,2.509 -0.079,4.451 -0.239,6.241 z m -8.4,13.68 c -1.068,-0.021 -2.094,1.254 -1.68,1.92 0.338,-0.863 1.38,-1.02 1.68,-1.92 z M 55.92,74.4 c 0.598,0.083 2.02,1.492 2.16,0.48 -1.706,-0.488 -6.193,-1.684 -8.4,-1.44 2.336,0.064 3.758,1.042 6.24,0.96 z m 19.44,0.24 c 2.02,0.046 4.315,-0.335 6.479,-0.48 1.186,-0.08 2.963,0.463 3.601,-0.72 -3.195,-0.063 -8.609,-1.16 -10.08,1.2 z m 41.52,-0.72 c 0.33,0.547 -0.618,0.902 0,0.96 0.316,-0.301 1.791,-1.537 0.96,-1.44 0.242,0.722 -0.534,0.425 -0.96,0.48 z M 73.2,74.88 c 1.466,0.186 2.124,-0.436 2.399,-1.44 -1.184,0.095 -2.011,0.548 -2.399,1.44 z m -8.88,10.8 C 52.215,82.745 38.016,79.805 25.44,76.8 c -2.392,-0.571 -5.538,-1.013 -5.76,-1.92 -0.997,0.033 -0.049,0.158 0,0.48 -0.612,-0.028 -1.235,-0.045 -1.2,-0.72 -1.59,1.099 -3.528,-1.522 -4.08,0 4.907,1.093 9.704,2.296 14.64,3.36 -0.003,0.317 -0.421,0.219 -0.48,0.48 0.75,0.328 2.369,0.333 0.96,-0.24 0.78,0.02 1.476,0.124 1.92,0.48 -0.359,0.041 -0.886,-0.086 -0.96,0.24 0.833,0.192 0.922,-0.357 1.68,-0.24 9.478,2.274 19.779,4.542 29.28,6.72 0.901,0.206 2.17,0.144 2.88,0.96 -1.266,0.059 -2.579,-1.093 -3.6,-0.48 1.641,0.399 4.102,0.291 3.84,1.92 0.085,-0.802 0.763,-2.723 0,-2.88 -0.038,0.282 0.041,0.682 -0.24,0.72 z M 12.24,75.36 c 0.062,-0.374 0.526,-0.167 0.72,0 -0.198,-0.678 0.338,-0.622 0.24,-1.2 -0.622,-0.043 -1.701,0.673 -0.96,1.2 z M 72,75.12 c 0.413,0.013 0.615,-0.185 0.72,-0.48 -0.413,-0.013 -0.615,0.185 -0.72,0.48 z m 37.92,9.84 c -0.159,-2.961 0.319,-6.559 -0.24,-9.12 v 9.601 c 0.319,-0.035 0.894,0.807 0.96,0.239 -0.245,-0.235 -0.486,-0.475 -0.72,-0.72 z m -2.64,-4.32 c -0.054,-1.036 0.625,-2.526 0,-3.84 0.163,1.29 -0.724,2.786 0,3.84 z M 15.12,78.96 c -0.049,-0.454 0.162,-2.371 -0.24,-1.68 0.049,0.454 -0.162,2.371 0.24,1.68 z m -5.04,0.24 c 0.906,-0.143 1.854,-1.495 1.68,-1.92 -0.309,0.891 -1.627,0.773 -1.68,1.92 z m 92.64,0.24 c 0.062,-0.374 0.526,-0.167 0.721,0 v -1.92 h -0.96 c 0.526,0.812 -0.799,1.261 0.239,1.92 z m -31.68,0.72 c 0.235,6.15 0.674,14.163 -0.24,19.92 0.806,0.371 1.568,0.535 2.16,0.24 -0.584,-0.43 -0.127,-0.886 0.48,-0.48 -0.372,-1.479 -0.131,-0.757 0,-2.399 -1.216,-0.29 -0.757,1.948 -1.681,1.199 -0.348,-4.698 -0.436,-10.915 0,-15.6 0.24,0.289 2.1,0.59 1.92,-0.96 -0.652,-0.374 -1.695,0.851 -1.68,-0.96 1.561,0.51 3.556,0.182 5.28,0 6.475,-0.685 13.547,-1.498 20.16,-1.92 1.039,-0.066 2.749,-0.061 3.119,-0.72 -7.664,0.256 -15.463,1.656 -22.8,1.44 7.714,-0.586 16.822,-1.181 23.28,-2.16 -9.899,0.787 -20.911,1.581 -29.998,2.4 z m 30.24,0 c 0.476,0.481 2.296,0.653 1.68,-0.24 -0.778,0.685 -1.129,-1.101 -1.68,-1.44 z m 2.88,0.48 c 0.038,-0.167 -0.084,-1.397 -0.24,-0.72 -0.211,0.913 0.129,1.202 0.24,0.72 z M 3.84,83.04 c 0.248,-1.433 1.458,-1.902 2.4,-2.64 -1.712,-0.234 -4.323,1.525 -2.4,2.64 z m 103.44,0.24 c 0.031,-1.036 0.305,-1.582 -0.24,-2.4 -0.02,0.735 -0.052,4.249 0.24,2.4 z M 64.8,82.56 c 0.31,0.331 1.042,0.237 1.68,0.24 -0.138,-0.422 0.29,-1.41 -0.24,-1.44 -0.358,1.051 -0.758,-0.031 -1.2,-0.24 -0.276,0.284 -0.271,0.848 -0.24,1.44 z M 7.44,84.48 c 1.989,1.117 7.005,-1.73 8.16,-0.721 -0.142,-0.124 -0.79,0.083 -0.72,0.24 0.816,0.017 1.675,0.074 1.92,-0.48 -0.897,-0.143 -1.241,-0.839 -1.92,-1.2 -1.392,1.809 -5.432,0.97 -7.44,2.161 z m 127.2,-0.72 c 0.755,-0.274 0.584,0.377 0.96,0.48 0.207,-1.087 -0.265,-1.495 -0.96,-1.68 z M 133.2,82.8 c -1.234,0.58 0.826,0.62 0,0 z m -1.44,0.48 c -0.349,0.131 -1.24,-0.28 -1.2,0.24 0.349,-0.131 1.241,0.28 1.2,-0.24 z m -2.64,0.24 h -1.44 c -1.679,0.718 0.847,0.362 1.44,0 z M 120.96,84 c 0.088,0.578 4.328,0.061 4.32,-0.24 -1.578,-0.058 -2.617,0.423 -4.32,0.24 z m 7.92,0.24 c 1.233,0.033 2.365,-0.035 3.12,-0.48 -1.153,0.047 -2.285,0.115 -3.12,0.48 z M 10.8,84.96 c 0.454,0.266 1.134,0.307 1.68,0.48 -0.192,-1.161 2.208,-0.98 1.92,-1.44 -1.209,0.311 -2.685,0.355 -3.6,0.96 z m 4.8,-0.24 c 0.729,-0.311 1.924,-0.155 2.4,-0.72 -0.819,0.222 -1.979,0.101 -2.4,0.72 z m 112.32,-0.48 c -0.422,0.138 -1.41,-0.29 -1.439,0.24 0.421,-0.138 1.409,0.291 1.439,-0.24 z m -120,0.72 C 7.374,84.786 6.694,84.746 6.24,84.481 c -0.056,0.633 1.483,0.89 1.68,0.479 z m 6.24,0.96 c 1.242,-0.121 3.847,-0.95 5.52,-1.439 -1.962,0.463 -4.637,0.339 -5.52,1.439 z m 92.88,6.48 c -0.002,0.62 -0.706,1.559 0.24,1.92 -0.25,-2.386 0.382,-7.096 -0.24,-9.84 -0.028,2.821 0.007,5.646 0,7.92 z m 12.48,-7.68 c 0.526,0.392 1.79,0.289 2.881,0.24 0.57,-0.025 4.088,-0.354 2.88,-0.479 -0.809,0.151 -2.229,-0.31 -2.641,0.239 z m 2.64,0.72 c 2.64,-0.001 5.12,-0.16 7.2,-0.721 -2.479,0.162 -4.96,0.321 -7.2,0.721 z M 51.12,99.36 C 49.002,98.513 46.701,98.155 44.64,97.44 42.019,96.53 38.38,94.52 35.76,94.08 32.846,93.59 30.053,92.101 27.36,91.2 24.133,90.121 21.002,88.99 17.76,88.08 17.254,87.937 16.868,87.569 16.32,87.36 15.246,86.949 14.009,86.786 12.96,86.4 11.48,85.855 9.646,84.006 8.4,85.679 c 4.383,2.02 9.956,3.999 14.16,4.801 -0.447,-0.033 -0.802,-0.158 -0.96,-0.48 1.583,0.497 3.252,0.908 4.56,1.68 -0.452,0.082 -1.75,-0.556 -1.2,0 1.537,0.14 3.322,0.212 4.56,1.2 -0.637,0.137 -2.115,-0.832 -1.68,-0.24 3.396,1.458 7.15,2.632 10.8,3.841 3.723,1.231 7.291,3.023 11.04,3.359 -6.797,-2.163 -13.579,-4.342 -19.92,-6.96 7.389,2.291 14.312,5.048 21.84,7.2 0.341,0.063 0.912,1.621 0.96,0.479 0.143,-0.842 -0.972,-1.012 -1.44,-1.199 z M 26.4,92.16 c 0.147,0.07 0.924,0.597 0.96,0 -0.447,0.23 -0.802,-0.719 -0.96,0 z m 22.32,5.28 c -0.199,-0.679 0.338,-0.622 0.24,-1.2 -0.989,-0.189 -0.451,1.148 -1.44,0.96 -0.19,-0.83 0.267,-1.014 0.48,-1.44 -0.994,-0.131 -0.812,1.708 -1.68,0.96 0.066,-2.174 3.151,-1.328 4.08,-2.64 -2.194,0.445 -4.084,1.195 -5.76,2.16 -0.206,-0.561 0.839,-1.034 0.24,-1.2 -0.388,0.332 -0.298,1.142 -1.2,0.96 0.042,-2.519 3.711,-1.408 4.56,-3.12 -2.122,0.198 -3.379,1.262 -5.52,1.44 -0.083,0.557 -0.156,1.124 -0.96,0.96 -0.805,-0.572 0.955,-1.26 0.48,-1.44 -0.835,0.125 -0.478,1.442 -1.68,1.2 -0.115,-0.755 0.342,-0.938 0.48,-1.44 -0.851,-0.051 -0.474,1.126 -1.44,0.96 -0.001,-2.32 3.159,-1.48 4.32,-2.64 -2.335,0.385 -4.354,1.086 -6,2.16 -0.021,-1.541 1.644,-1.396 2.64,-1.92 0.05,-0.696 -1.569,0.734 -2.64,0.479 -0.347,0.453 -0.536,1.064 -1.44,0.96 0.379,-2.021 3.536,-1.265 4.56,-2.64 -2.503,0.297 -4.615,0.984 -6.48,1.92 -0.206,-0.766 0.377,-0.742 0.48,-1.2 -0.989,-0.188 -0.451,1.149 -1.44,0.96 -0.129,-0.849 0.204,-1.236 0.72,-1.439 1.073,-0.208 1.834,-0.726 3.12,-0.72 0.397,-0.529 0.461,-0.333 -0.24,-0.24 -1.405,0.185 -4.899,1.004 -5.04,2.16 6.896,2.223 13.153,5.087 20.64,6.72 0.192,-0.448 0.401,-0.879 0.48,-1.44 -0.809,-0.059 -0.696,1.436 -1.44,0.721 0.012,-1.589 2.176,-1.024 2.64,-2.16 -1.809,0.111 -2.646,1.193 -4.08,1.68 0.153,-2.087 2.87,-1.61 4.08,-2.64 -2.194,0.445 -4.084,1.195 -5.76,2.159 z M 12.96,85.68 c 0.601,0.041 0.751,-0.368 0.96,-0.72 H 13.2 c 0.01,0.33 -0.113,0.527 -0.24,0.72 z m 2.4,0.96 c 1.235,0.521 0.978,-0.433 1.92,-0.72 1.201,-0.318 2.583,-0.458 3.6,-0.96 -2.103,0.297 -4.221,0.579 -5.52,1.68 z M 115.68,86.4 c 1.023,-0.025 1.593,-0.646 1.2,-1.44 h -1.2 c 0.216,0.702 0.216,0.737 0,1.44 z m 3.6,-1.44 c -0.497,0.143 -1.577,-0.297 -1.681,0.24 0.499,-0.142 1.578,0.297 1.681,-0.24 z m -97.92,0.72 c -1.537,-0.277 -0.527,0.733 0,0 z m -4.32,1.44 c 0.186,0.054 0.473,0.007 0.48,0.24 0.71,-0.65 1.592,-1.128 2.64,-1.44 -1.291,0.148 -2.633,0.248 -3.12,1.2 z m 1.68,0.48 c 0.158,0.322 0.513,0.447 0.96,0.48 0.602,-1.639 3.448,-1.031 4.56,-2.16 -2.04,0.36 -4.538,0.262 -5.52,1.68 z m 91.2,-0.72 c -0.083,-0.558 -0.155,-1.125 -0.96,-0.96 0.029,0.61 0.35,0.931 0.96,0.96 z M 22.8,87.36 c 1.115,-0.085 2.092,-0.309 2.88,-0.721 -1.186,0.014 -2.163,0.238 -2.88,0.721 z m -12.96,1.2 c 3.385,1.059 7.151,2.537 10.08,3.601 3.118,1.132 6.041,1.899 8.88,3.12 5.834,2.078 12.029,3.989 17.76,6 1.873,0.656 3.739,1.77 5.76,1.68 C 44.461,100.372 36.847,97.502 29.28,94.801 21.677,92.087 14.07,89.648 6.48,86.881 6.294,86.934 6.007,86.887 6,87.12 c 1.491,0.235 3.248,1.255 3.84,1.44 z m 12.24,0.48 c 0.861,-0.142 1.161,0.279 1.68,0.479 -0.109,-2.112 3.948,-1.328 3.84,-2.64 -1.534,1.027 -4.68,0.441 -5.52,2.161 z M 20.4,88.32 c 0.578,-0.099 0.522,0.438 1.2,0.239 -0.102,-0.821 0.719,-0.721 0.96,-1.199 -1.035,0.005 -1.847,0.234 -2.16,0.96 z m 6.72,0 c 0.698,-0.263 1.695,-0.225 2.16,-0.721 -0.836,-0.023 -2.417,0.448 -2.16,0.721 z m -2.88,1.44 c 0.596,-0.312 0.996,0.704 1.2,0 -0.458,-0.396 0.889,-1.018 1.2,-1.439 -1.252,0.027 -2.202,0.357 -2.4,1.439 z m 1.44,0.48 c 1.994,0.646 3.833,1.447 6,1.92 0.454,-1.946 3.259,-1.541 4.56,-2.641 -2.201,0.44 -4.628,0.652 -6,1.921 -0.023,-2.423 3.632,-1.169 4.56,-2.641 -2.13,0.75 -4.867,0.893 -6.48,2.16 0.072,-2.328 3.759,-1.041 4.56,-2.64 -2.373,0.108 -5.033,1.204 -6.24,1.68 -0.453,-0.953 1.962,-0.986 0.72,-1.2 -0.718,0.323 -1.617,0.464 -1.68,1.441 z m 77.52,3.6 v -5.28 c -0.282,1.146 -0.583,7.05 0,5.28 z M 5.52,90 C 4.478,89.666 3.64,88.975 2.4,89.52 c 8.646,2.874 17.147,6.545 25.92,9.36 4.417,1.418 8.872,3.028 13.2,4.561 4.389,1.553 8.816,2.812 12.96,4.8 0.486,0.913 -0.196,1.59 0,2.88 1.402,-0.556 0.415,-2.723 0.48,-3.601 C 38.224,102.29 21.986,95.285 5.52,90 Z M 6,89.52 C 5.622,89.499 5.812,88.909 5.28,89.041 5.069,89.534 5.902,90.118 6,89.52 Z m 53.52,3.84 c 1.873,-0.53 4.026,-2.052 4.08,-3.601 -0.833,1.727 -2.567,2.553 -4.08,3.601 z M 37.2,91.2 c 0.48,-0.448 -1.776,0.006 -1.92,0.479 0.864,0.065 1.157,-0.443 1.92,-0.479 z m 76.32,0 c -0.013,0.307 -0.308,0.332 -0.239,0.72 -0.479,1.559 -0.144,3.625 -0.24,5.76 -0.161,3.554 -1.139,8.024 0.96,9.601 1.094,-0.379 0.914,-2.205 0.96,-3.36 0.061,-1.516 -0.054,-3.215 0,-4.8 0.095,-2.818 0.982,-6.253 -0.72,-7.92 z m 14.88,1.2 c 0.904,2.01 0.607,4.33 0.479,7.199 -0.229,5.127 -1.964,11.59 1.68,12.24 0.288,-3.632 0.333,-7.635 0.48,-11.04 0.082,-1.897 0.252,-3.572 -0.24,-5.04 0.158,-0.722 0.923,-0.838 0.72,-1.92 -0.296,-1.063 -1.426,-1.293 -1.68,-2.399 -0.36,0.439 -1.034,0.565 -1.439,0.96 z m -24.48,0.48 c 0.065,-0.327 -0.148,-0.937 -0.24,-0.479 -0.066,0.326 0.148,0.936 0.24,0.479 z m -33.12,6 c -0.141,-1.762 0.294,-5.577 -0.24,-6 0.184,2.362 -0.589,4.239 0.24,6 z M 57.36,94.56 c 0.435,-0.604 1.485,-0.595 1.92,-1.199 -0.613,0.203 -2.87,0.994 -1.92,1.199 z m 43.92,0.96 c -0.519,-0.173 0.148,-1.803 0.72,-0.96 -0.312,-0.596 0.704,-0.995 0,-1.199 -0.045,0.355 -0.58,0.22 -0.96,0.239 0.161,0.907 -0.55,2.437 0.24,1.92 z m 1.92,1.2 c 0.682,-0.276 1.066,-1.721 0.24,-2.16 0.487,1.174 -0.423,1.674 -0.24,2.16 z M 6.24,96 C 6.599,95.959 7.125,96.086 7.2,95.76 6.401,95.926 6.813,95.264 6.96,95.04 6.327,94.967 6.341,95.541 6.24,96 Z m 95.52,0.24 h 0.48 c 0.014,0.146 0.035,0.284 0.24,0.24 -0.332,-0.972 0.521,-0.76 0.479,-1.44 -0.349,0.131 -1.24,-0.28 -1.2,0.24 0.598,0.036 0.071,0.813 0.001,0.96 z m -90.48,2.88 c 0.138,0.982 1.105,1.135 1.2,2.16 -0.134,0.586 -0.929,0.511 -0.72,1.439 0.251,5.509 -0.544,12.064 0.48,16.8 1.421,-0.019 2.472,-0.407 3.84,-0.479 0.416,-4.502 0.197,-11.614 0.48,-17.04 0.061,-0.86 -0.721,-0.879 -0.72,-1.68 -0.046,-1.006 1.178,-0.742 0.96,-1.92 -0.556,-1.524 -2.293,-1.867 -3.84,-2.4 0.263,1.862 -0.659,2.541 -1.68,3.12 z M 95.52,96 c -0.358,0.041 -0.886,-0.086 -0.96,0.24 0.359,-0.041 0.885,0.086 0.96,-0.24 z m -19.68,2.4 c -0.678,0.091 -1.729,0.033 -1.92,0.72 0.619,0.058 -0.329,0.413 0,0.96 1.463,0.336 2.809,-0.701 3.84,0 -1.597,0.243 -3.691,-0.012 -4.56,0.96 7.915,-0.947 16.974,-2.015 24.96,-3.6 -6.714,0.486 -13.469,2.211 -19.92,2.159 6.464,-0.724 13.712,-1.735 19.68,-2.64 0.87,-0.132 2.092,0.146 2.64,-0.72 -7.562,0.038 -16.097,2.462 -23.76,2.399 0.973,-0.075 3.188,-0.16 3.12,-0.479 -1.207,0.18 -2.859,0.077 -4.08,0.241 z m 31.2,-0.72 c 0.031,-0.315 0.036,-1.736 -0.24,-0.96 -0.031,0.315 -0.036,1.736 0.24,0.96 z M 86.16,97.2 c -0.253,0.013 -0.189,0.308 0.24,0.24 1.116,-0.328 3.887,-0.268 4.08,-0.721 -1.588,0.013 -2.828,0.374 -4.32,0.481 z m 15.6,-0.24 c -2.371,-0.033 1.165,0.017 0,0 z m 14.64,0.96 c 0.031,-0.315 0.036,-1.736 -0.24,-0.96 -0.032,0.315 -0.036,1.736 0.24,0.96 z M 54.96,97.2 c -0.279,0.668 -1.634,2.767 -0.24,2.88 -0.391,-1.359 1.539,-1.648 0.96,-2.4 -0.706,1.133 -0.505,-0.157 -0.72,-0.48 z m 17.52,0.72 C 72.493,97.507 72.294,97.305 72,97.2 c -0.013,0.413 0.185,0.615 0.48,0.72 z m 9.6,0 c -0.497,0.143 -1.577,-0.297 -1.68,0.24 0.497,-0.142 1.577,0.297 1.68,-0.24 z m 43.68,6.24 c -0.138,-1.546 0.29,-4.925 -0.24,-5.28 0.138,1.546 -0.29,4.925 0.24,5.28 z M 21.12,100.8 c -0.448,0.382 -0.413,0.894 -0.48,1.44 -0.575,4.682 0.429,10.812 0,15.84 1.142,0.952 1.873,2.389 1.44,4.08 2.161,-0.159 4.958,0.318 6.72,-0.24 -1.948,-0.377 -1.534,-5.126 0.48,-5.04 -0.164,-3.329 0.109,-9.824 0,-14.64 -3.067,-1.013 -5.812,-2.348 -8.88,-3.36 -0.315,1.194 0.739,1.021 0.72,1.92 z M 8.4,99.36 c 0.01,1.062 1.868,0.853 1.92,0 -0.653,-0.212 -1.17,-0.325 -1.92,0 z m 1.44,1.2 c -0.32,-0.399 -1.359,-0.08 -1.68,-0.479 -0.311,0.889 1.421,0.952 1.68,0.479 z m 96.96,0.24 c 0.053,-0.302 0.374,-0.49 -0.24,-0.479 -1.48,0.999 -4.043,0.916 -5.76,1.68 2.532,0.131 4.402,-0.399 6,-1.201 z m -96.96,0.96 c -0.023,-0.937 -1.449,-0.471 -1.92,-0.96 0.025,0.935 1.042,0.878 1.92,0.96 z m 62.88,-0.48 c 0.296,-0.798 -1.622,-0.587 -1.68,-0.24 0.564,0.076 0.901,0.379 1.68,0.24 z M 132,102 c -0.188,-1.647 -0.248,0.273 -0.24,0.24 -0.234,0.97 -0.528,2.031 0,3.12 0.129,-1.183 0.304,-2.793 0.24,-3.36 z m -4.32,0.48 c 0.065,-0.327 -0.148,-0.938 -0.239,-0.48 -0.066,0.327 0.148,0.937 0.239,0.48 z M 100.08,102 c -0.349,0.131 -1.24,-0.28 -1.2,0.24 0.349,-0.132 1.24,0.281 1.2,-0.24 z m -48.24,1.68 c 1.464,1.509 -0.139,-0.678 0,0 z m -13.92,11.76 c -0.289,-0.037 -0.673,0.039 -0.72,-0.24 -0.477,-2.845 0.934,-6.335 0.24,-9.84 -1.197,-0.562 -2.436,-1.084 -3.84,-1.44 0.176,5.336 -0.446,8.295 0,12.48 1.355,-0.562 3.275,-0.741 4.32,-0.96 z m 95.04,-9.6 c -0.049,-0.453 0.162,-2.371 -0.24,-1.68 0.05,0.453 -0.161,2.371 0.24,1.68 z m -75.84,5.52 c -1.01,0.097 -2.242,-0.032 -2.4,0.479 0.833,0.934 0.597,0.205 2.16,0.24 2.647,-0.247 6.399,-1.632 8.4,-0.96 0.278,-0.816 0.814,-0.638 1.2,-0.72 1.833,-0.391 3.965,-0.394 6,-0.721 5.935,-0.953 12.098,-2.274 17.76,-2.88 4.444,-0.476 8.008,-0.862 11.76,-1.92 -15.091,1.668 -30.047,5.06 -44.88,6.482 z m -5.76,-5.52 c 0.279,0.201 0.644,0.316 1.2,0.24 -0.041,-0.359 0.085,-0.886 -0.24,-0.96 0.103,0.663 -0.895,0.226 -0.96,0.72 z m 59.04,0.24 c 0.065,-0.327 -0.149,-0.937 -0.24,-0.48 -0.065,0.327 0.149,0.937 0.24,0.48 z m 1.44,0 c -2.371,-0.033 1.165,0.017 0,0 z m 4.32,1.92 c 0.904,0.185 1.147,-0.293 1.92,-0.24 0.095,-1.055 -1.092,-0.828 -1.68,-1.2 0.174,0.734 -0.414,0.706 -0.24,1.44 z m -72,4.32 c -0.418,-0.452 -0.925,0.328 -0.48,-0.48 0.555,-0.885 0.083,-2.796 0.24,-4.08 -0.731,-0.26 -1.731,-1.153 -2.4,-0.72 -0.065,2.927 0.116,5.554 0,7.92 -0.533,0.827 -2.581,0.14 -3.36,0.72 1.08,0.954 3.234,-0.624 3.6,-0.479 1.124,0.444 1.491,2.713 0.72,4.08 0.759,-0.04 0.802,0.638 1.68,0.479 z m 83.04,-1.92 c -0.115,-0.933 0.258,-3.608 -0.24,-3.36 0.115,0.933 -0.259,3.607 0.24,3.36 z m 4.32,0.24 c 0.178,0.383 1.175,-0.055 0.961,0.721 -0.519,0.227 -0.877,0.119 -1.2,0.96 0.433,0.312 2.382,0.604 2.16,-0.48 -0.524,-0.275 -0.772,-0.828 -0.96,-1.439 -0.099,-0.579 0.438,-0.522 0.239,-1.2 -0.049,-0.454 0.162,-2.371 -0.239,-1.681 v 1.2 c -0.055,0.426 0.241,1.202 -0.48,0.96 -0.706,-0.414 0.227,-2.466 -0.48,-2.88 -10e-4,1.279 -10e-4,2.559 -10e-4,3.839 z M 17.28,117.6 c 0.651,-0.148 1.905,0.305 2.16,-0.239 -0.852,-1.069 0.523,-4.363 -0.72,-5.04 -0.381,1.81 0.77,4.288 -0.48,4.8 -0.139,-2.879 0.29,-7.814 -0.24,-9.36 -0.579,2.94 0.315,7.354 -0.72,9.839 z m 95.28,-9.6 c 0.495,-0.146 1.668,0.388 1.44,-0.48 h -1.44 z m -62.16,5.76 c -0.116,-0.086 1.056,-0.29 0.48,0.48 0.878,-0.158 0.921,0.52 1.68,0.479 0,-1.002 -1.263,-0.604 -1.2,-2.16 -0.988,-0.113 0.231,0.646 -0.72,0.721 -0.412,-0.613 0.275,-0.84 -0.24,-1.2 -0.541,1.093 -0.472,0.32 -1.2,0 v 1.2 c 0.843,-0.54 0.683,0.097 1.2,0.48 z m -1.2,0 c -1.158,-1.887 0.717,-3.87 -0.72,-4.56 -1.201,0.136 -0.678,1.668 -0.72,2.399 -0.198,3.429 -0.239,6.764 -0.24,9.841 1.691,0.389 2.649,1.511 4.56,1.68 -0.102,-3.069 -0.102,-4.851 0,-7.92 -0.76,-0.679 -1.944,-0.935 -2.88,-1.44 z m 44.64,-2.64 c 0.907,-0.348 0.461,0.659 1.2,0.479 -0.263,-0.913 0.635,-1.498 -0.24,-1.68 0.269,0.85 -1.374,1.002 -0.96,1.201 z m 22.32,1.92 c 0.102,-0.821 -0.719,-0.722 -0.96,-1.2 0.322,-0.158 0.446,-0.513 0.479,-0.96 -0.654,0.175 -0.482,-0.477 -0.96,-0.479 0.516,0.869 -1.629,0.244 -0.72,0.72 1.115,0.244 1.1,1.621 2.161,1.919 z M 85.2,110.88 c -0.359,0.041 -0.886,-0.086 -0.96,0.24 0.359,-0.041 0.886,0.086 0.96,-0.24 z m 4.32,1.92 c -0.63,0.129 -2.41,1.194 -2.399,2.16 -10e-4,-0.112 0.688,0.678 0.72,0.72 1.038,1.373 -0.01,1.83 -0.24,3.12 -0.996,5.581 0.494,14.844 -0.479,19.92 0.764,0.037 1.056,0.544 1.92,0.48 0.294,-0.986 1.588,-0.972 2.16,-1.681 -0.03,-6.839 0.738,-15.385 0,-22.8 -0.149,-1.012 1.306,-1.214 0.72,-1.92 -0.321,-1.039 -0.715,-2.005 -2.16,-1.92 -0.373,0.35 -0.213,1.229 -0.242,1.921 z m -6.48,-1.44 c 1.525,-0.473 -0.945,0.095 -0.48,0 -1.78,0.364 -0.181,0.204 0.48,0 z m 28.32,0 c -0.349,0.131 -1.241,-0.281 -1.2,0.239 0.349,-0.13 1.24,0.282 1.2,-0.239 z m -80.4,2.88 c -0.088,-0.646 0.22,-2.922 -0.24,-2.4 0.089,0.645 -0.22,2.922 0.24,2.4 z m 48,-2.16 c 0.413,0.013 0.615,-0.185 0.72,-0.48 -0.412,-0.013 -0.616,0.185 -0.72,0.48 z m 5.76,0.96 h 0.721 c -0.22,-0.421 -0.083,-1.197 -0.48,-1.44 -0.345,0.716 0.195,0.816 -0.241,1.44 z m 26.88,2.88 c 0.888,-1.087 1.894,-0.632 2.881,-1.439 -0.4,-1.121 -0.655,-2.386 -1.681,-2.881 -0.394,1.29 -1.738,2.896 -1.2,4.32 z m -54.24,-0.24 c 0.928,-0.072 2.094,-0.589 2.88,-0.72 6.062,-1.009 12.993,-1.648 18.24,-3.12 -5.447,0.98 -12.126,1.681 -17.76,2.4 -1.313,0.168 -2.371,0.695 -3.6,0.72 -0.928,0.019 -1.896,-0.425 -1.92,0 -0.226,1.418 1.649,0.76 2.16,0.72 z m 70.32,-3.36 c 1.004,0.116 1.863,0.377 2.641,0.72 0.235,-1.737 -1.812,-1.044 -2.641,-0.72 z m -74.16,0.24 c 0.384,-0.668 -1.037,-0.663 -0.96,-0.239 0.324,0.075 0.459,0.341 0.96,0.239 z m 26.64,-0.24 c -1.665,-0.365 -4.07,1.205 -6,0.96 v 1.92 c -1.349,0.171 -1.475,1.564 -2.64,1.92 0.008,1.031 1.275,0.805 0.96,2.16 0.099,1.139 -0.907,1.174 -0.96,2.16 0.551,3.129 0.087,7.272 0.24,10.8 3.664,1.137 6.55,3.05 10.32,4.08 -0.319,-7.209 0.668,-14.2 -0.48,-19.681 -0.049,-1.009 0.912,-1.008 0.96,-1.92 -1.04,-1.03 -0.964,-2.084 -2.4,-2.399 z m 31.2,1.2 c -0.069,-0.418 0.767,-1.288 -0.24,-1.199 0.131,0.348 -0.28,1.24 0.24,1.199 z m -70.56,0.24 c -0.033,0.447 -0.158,0.803 -0.48,0.96 -0.079,-0.275 -0.288,-1.585 -0.48,-0.96 0.036,0.596 0.045,1.165 -0.48,1.2 0.02,-0.373 -0.698,-0.166 -0.24,0 0.731,0.744 2.643,-0.285 1.68,-1.2 z M 54,115.2 c 0.472,-0.072 0.476,0.324 0.72,0.479 0.094,-0.793 0.479,-2.377 -0.48,-1.68 0.652,0.22 -0.244,0.842 -0.24,1.201 z m 14.88,0.72 c 1.117,0.19 0.456,-1.389 0.24,-1.92 -0.371,0.349 -0.211,1.229 -0.24,1.92 z m 47.76,-0.24 c 0.054,-0.187 0.201,-0.278 0.48,-0.239 0.047,-0.688 0.029,-1.311 -0.72,-1.2 0.138,0.421 -0.29,1.409 0.24,1.439 z m -52.8,-0.96 c -0.563,0.397 -0.52,1.4 -0.48,2.4 -1.326,0.193 -1.627,1.412 -2.64,1.92 2.117,1.731 0.18,4.864 0.72,8.4 1.583,0.896 3.609,1.351 5.04,2.399 0.242,-2.958 -0.53,-6.93 0.48,-9.12 -0.716,-0.163 -0.805,-0.955 -0.72,-1.92 0.175,-0.545 0.722,-0.718 1.2,-0.96 -0.763,-1.477 -1.226,-3.253 -3.6,-3.119 z m 29.52,0.72 c 0.043,-0.524 -0.197,-0.764 -0.721,-0.721 -0.042,0.524 0.197,0.764 0.721,0.721 z M 30,116.4 c 0.779,-0.452 1.522,0.452 1.44,-0.96 -1.218,0.438 -0.558,-0.231 -1.44,-0.48 z m 40.08,-0.72 h 0.48 v -0.479 h -0.48 z m -60.24,3.6 c -0.584,0.214 -1.234,-1.07 -1.2,0 0.221,0.419 0.75,0.529 1.44,0.479 0.521,-1.189 0.522,-3.363 0,-4.08 -0.155,1.126 0.314,2.875 -0.24,3.601 z m 35.52,4.8 c -0.696,-2.174 0.32,-4.612 0,-7.2 -1.351,0.133 -0.482,1.755 -0.48,2.64 0.006,2.133 -0.004,4.71 0,6.721 0.815,-0.065 1.946,0.186 2.4,-0.24 0.023,-1.303 -0.517,-2.043 -1.2,-2.64 -0.376,-2.713 0.934,-5.696 -0.24,-7.681 -0.291,2.669 0.6,6.52 -0.48,8.4 z m 13.44,-7.44 v -0.96 c -0.947,-0.166 -0.786,1.01 0,0.96 z m 50.64,-0.48 c 0.136,1.089 1.374,-1.375 0.239,-0.24 -0.114,0.114 -0.275,-0.045 -0.239,0.24 z m -40.56,0.48 c 0.495,-0.145 1.667,0.388 1.44,-0.479 -0.636,0.003 -1.413,-0.135 -1.44,0.479 z m -37.2,0.24 c -0.284,-0.276 -0.849,-0.271 -1.44,-0.24 -0.339,0.766 1.436,0.606 1.44,0.24 z m 2.16,0.24 h 0.48 v -0.48 h -0.48 z m 4.56,-0.24 c 0.58,1.234 0.621,-0.826 0,0 z m 86.64,1.2 c 0.398,0.401 1.409,0.19 2.16,0.24 v -1.2 h -2.16 z M 32.16,117.6 c -0.574,0.146 -1.741,-0.301 -1.92,0.24 0.351,0.322 1.901,0.491 1.92,-0.24 z m 36.72,0.24 c -0.056,1.011 1.483,0.252 1.68,0 -0.546,-0.116 -1.226,-0.476 -1.68,0 z m -49.44,0.72 c -0.151,-0.809 -1.294,-0.625 -2.16,-0.72 -0.152,1.112 1.312,0.607 2.16,0.72 z m 17.76,-0.24 c 0.306,0.327 1.175,0.37 1.2,-0.24 -0.306,-0.327 -1.175,-0.371 -1.2,0.24 z m 18.72,1.92 c 0.099,-0.302 0.31,-0.491 0.72,-0.48 -0.143,-0.897 -0.289,-1.791 -1.2,-1.92 0.27,0.689 0.049,1.871 0.48,2.4 z m 1.92,-1.92 c 0.733,0.331 2.004,0.411 2.16,-0.48 -0.809,0.071 -1.64,0.121 -2.16,0.48 z m 75.12,0 c -0.349,0.131 -1.24,-0.281 -1.2,0.239 0.348,-0.13 1.24,0.282 1.2,-0.239 z m -113.52,1.44 c 0.291,-0.211 1.912,-0.297 0.96,-0.96 0.104,0.607 -1.597,0.612 -0.96,0.96 z M 18.48,120 c -0.657,-0.224 -1.023,-0.736 -1.68,-0.96 0.187,0.547 1.121,1.58 1.68,0.96 z m 17.28,0.96 c 1,0.243 1.207,0.564 1.92,0 -0.213,-1.066 -1.346,-1.214 -1.92,-1.92 z m 96.48,-0.72 c 0.663,-0.137 1.346,-0.254 1.2,-1.2 -0.595,0.209 -1.861,0.469 -2.4,0 -0.145,0.946 0.537,1.063 1.2,1.2 z m -64.32,0.24 c 0.582,0.153 0.899,-1.144 0.48,-1.2 -0.102,0.457 -0.686,0.434 -0.48,1.2 z m 57.36,-0.72 c 0.596,0.036 0.996,-0.124 1.2,-0.479 -0.454,0.106 -1.447,-0.328 -1.2,0.479 z M 12.72,120 c -0.054,0.454 0.27,0.529 0.24,0.96 1.192,-0.408 2.948,-0.252 3.84,-0.96 -1.364,-0.592 -2.498,-0.309 -4.08,0 z m 45.36,0.24 h 0.72 c -0.038,-0.282 0.042,-0.682 -0.24,-0.721 -0.058,0.343 -0.395,0.406 -0.48,0.721 z m -46.8,0.48 c -1.221,0.021 -2.505,0.105 -3.12,-0.479 0.229,1.235 2.644,1.463 3.12,0.479 z m 18.48,-0.48 c -0.729,0.809 0.887,0.728 0,0 z m 63.6,5.28 c -0.137,-1.468 0.287,-4.762 -0.24,-5.039 0.136,1.467 -0.288,4.761 0.24,5.039 z m -7.68,4.32 c -0.067,2.204 0.062,4.094 0.24,2.4 0.33,-3.126 0.046,-8.701 0.24,-11.28 -0.051,-0.27 -0.267,-0.374 -0.48,-0.479 z M 57.6,122.16 c -0.68,0.039 0.199,-1.479 -0.48,-1.44 -0.848,0.311 -0.194,2.145 0.48,1.44 z m -0.24,0.72 c 0.779,0.14 1.117,-0.163 1.68,-0.24 -0.049,-0.453 0.162,-2.371 -0.24,-1.68 0.185,1.305 -0.684,1.557 -1.44,1.92 z m 24.96,17.52 c 1.354,0.099 2.585,0.444 3.84,0 -0.077,-0.563 -0.379,-0.901 -0.24,-1.681 -0.879,0.002 -0.352,1.408 -1.439,1.2 -1.709,-0.826 -0.766,-2.958 -0.721,-4.32 0.152,-4.56 0.279,-9.836 0,-14.88 0.03,5.786 -0.824,13.078 -0.479,19.2 -0.212,0.237 -2.407,0.339 -0.96,0.72 0.092,0.369 0.287,0.037 -0.001,-0.239 z M 44.4,121.2 c -0.97,-0.845 -0.566,0.772 0,0 z m 88.56,-0.24 H 132 c -0.189,0.924 1.149,0.924 0.96,0 z m -103.2,0.48 c -1.147,-0.668 -0.581,0.788 0,0 z m -22.08,1.44 c 0.578,0.099 0.521,-0.438 1.2,-0.24 0.038,-0.917 -0.98,-0.779 -1.44,-1.199 -0.032,0.59 -0.036,1.156 0.24,1.439 z m 22.8,-0.96 c 0.351,0.322 1.901,0.49 1.92,-0.24 -0.491,-0.463 -1.573,-0.162 -1.92,0.24 z m 2.64,0.96 c 4.573,-0.172 7.948,2.131 11.28,2.4 -3.57,-0.814 -7.653,-5.374 -11.28,-2.4 z m 14.64,0.24 c 0.032,-0.315 0.037,-1.736 -0.24,-0.96 -0.032,0.316 -0.037,1.736 0.24,0.96 z m 5.28,2.64 c -0.351,-1.918 0.826,-2.856 -0.24,-3.84 -0.23,0.729 -0.702,3.509 0.24,3.84 z m -39.12,-2.88 c 0.7,0.353 0.7,-1.072 0,-0.72 z m 81.36,2.64 c -0.11,-0.858 0.251,-3.438 -0.24,-3.119 0.11,0.858 -0.251,3.438 0.24,3.119 z m -39.12,-0.48 c -0.059,-0.981 0.233,-2.313 -0.48,-2.64 -0.278,0.512 -0.687,2.816 0.48,2.64 z m -36.48,-2.16 h 1.2 c 0.408,0.054 0.594,-0.271 0,-0.24 h -2.4 c 0.071,0.632 -0.931,0.189 -0.72,0.96 0.827,-0.053 1.136,-0.623 1.92,-0.72 z m 7.68,0.24 c -0.29,0.051 -0.147,0.267 0,0.479 1.869,-0.344 3.674,0.64 5.04,0 -0.374,-0.062 -0.167,-0.526 0,-0.72 -1.381,0.051 -4.156,-0.893 -5.04,0.241 z m 30.24,0.48 c 0.504,0.077 2.079,0.037 1.2,-0.479 -0.191,0.634 -1.128,-0.538 -1.2,0.479 z m -49.2,1.2 c -0.179,-0.738 0.659,-0.461 0.48,-1.2 H 8.16 c 0.131,0.349 -0.281,1.241 0.24,1.2 z m 59.28,17.28 c 0.708,-0.442 0.657,-1.461 0.72,-2.16 0.422,-4.715 -0.537,-10.702 0,-16.08 -0.053,-0.187 -0.201,-0.279 -0.48,-0.24 -0.47,6.299 -0.174,12 -0.24,18.48 z m 2.64,0.24 c 0.125,-5.81 0.488,-12.594 0,-18.721 -0.498,6.672 -0.587,12.331 0,18.721 z M 21.6,123.84 c -1.537,-0.278 -0.527,0.733 0,0 z m -10.56,0.72 c -0.317,-0.002 -0.219,-0.42 -0.48,-0.479 -0.275,0.491 0.377,1.143 0.48,0.479 z m 17.76,2.4 c 2.625,-0.065 4.828,0.293 6.72,0.96 1.901,-0.338 -1.924,-0.368 -1.92,-1.68 0.377,-0.023 0.832,0.032 0.72,-0.48 -0.093,-0.342 -0.288,-0.404 0,-0.72 -1.438,-0.166 -3.6,-0.874 -5.04,-0.24 0.242,0.003 0.302,0.421 0,0.48 -0.33,-0.011 -0.527,0.112 -0.72,0.239 -0.763,-0.366 -1.056,-0.084 -1.92,0 h -1.2 c -0.569,-0.198 -1.105,0.339 -0.24,0.24 1.401,-0.159 4.665,0.147 2.88,0.96 0.282,0.039 0.681,-0.04 0.72,0.241 z M 8.16,125.52 c 0.33,-0.01 0.527,0.113 0.72,0.24 0.114,-0.746 -0.646,-0.901 -0.72,-0.24 z m 45.6,2.88 c -0.167,0.473 -1.339,-0.06 -1.44,0.479 0.48,0.306 2.516,0.562 2.64,-0.24 -1.565,-0.034 -0.538,-2.662 -1.2,-3.6 -0.279,0.782 -0.45,2.612 0,3.361 z m -5.52,-1.44 c 0.8,0.153 3.453,0.098 3.6,-1.2 -0.579,0.068 -3.092,0.262 -3.6,1.2 z m -36.96,-0.24 c -0.55,-0.569 -2.329,0.09 -2.88,-0.479 -0.186,1.155 2.383,0.804 2.88,0.479 z m 30.72,0 c 1.747,1.226 -0.213,-0.605 0,0 z m 16.32,0.48 c 0.128,4.825 -0.852,13.541 0,18.479 -0.156,-6.188 0.635,-12.312 0,-19.199 -0.305,0.348 -0.008,0.397 0,0.72 z m -12.72,0.72 c 0.286,-0.713 -1.012,-1.031 -1.2,-0.479 0.739,-0.179 0.461,0.658 1.2,0.479 z m -14.64,0.72 c 0.783,0.062 1.155,-0.284 1.2,-0.96 -0.284,-0.034 -0.544,-0.427 -0.72,0 0.65,0.216 -0.549,0.537 -0.48,0.96 z m 13.92,0 c -0.241,0.319 -0.227,0.894 -0.72,0.96 -0.663,0.104 -0.226,-0.895 -0.72,-0.96 -0.136,1.377 0.915,1.463 0,2.4 0.34,0.463 1.381,0.948 1.68,0.72 -0.128,-0.752 -0.989,-0.771 -0.72,-1.92 0.331,-0.01 0.527,0.113 0.72,0.24 v -1.92 c -0.676,-0.204 -0.985,-0.775 -1.92,-0.72 0.052,1.215 1.169,0.996 1.68,1.2 z m 15.6,-0.24 c 0.065,-0.327 -0.148,-0.938 -0.24,-0.48 -0.065,0.327 0.149,0.936 0.24,0.48 z m 32.4,-0.48 c 0.235,3.008 -0.374,6.273 0,8.64 -0.324,0.637 -0.38,1.54 -0.96,1.921 1.223,0.228 1.897,0.228 3.12,0 -0.408,-0.326 -0.024,-2.678 -0.48,-2.16 0.203,1.322 -0.246,1.993 -1.439,1.92 -0.31,-2.579 0.414,-8.452 -0.241,-10.321 z M 9.6,129.36 c 0.726,-0.075 1.866,0.267 1.92,-0.48 -0.313,-0.808 -1.449,-0.791 -2.4,-0.96 -0.115,0.755 0.342,0.938 0.48,1.44 z m 39.84,1.2 c -1.25,-0.829 -2.458,-1.701 -3.84,-2.399 0.142,1.335 3.965,2.355 3.84,2.399 z m 12.48,-1.44 c -0.033,-0.447 -0.158,-0.802 -0.48,-0.96 -0.067,0.547 0.058,0.902 0.48,0.96 z m 33.12,3.36 c -0.127,-1.159 0.274,-4.107 -0.24,-4.08 0.127,1.159 -0.275,4.107 0.24,4.08 z m -35.28,6.24 c -0.068,1.559 -0.348,3.312 0.48,4.561 0.08,-3.958 0.206,-8.827 0.24,-12.721 0.005,-0.54 0.432,-1.49 -0.24,-1.68 0.102,3.63 -0.344,6.756 -0.48,9.84 z M 52.56,132 c -0.864,-0.435 -0.708,0.043 -1.44,0.24 0.137,-1.148 1.182,-2.83 -0.48,-3.12 -0.018,0.94 -0.198,0.764 -0.96,0.96 2.111,-0.088 0.577,2.386 1.2,3.84 0.254,0.594 1.028,-0.265 0.72,0.72 0.072,0.472 -0.324,0.477 -0.48,0.721 0.566,0.073 0.446,0.833 1.2,0.72 0.044,-0.623 -0.767,-1.607 -0.24,-1.92 0.369,0.271 0.59,0.689 0.96,0.96 0.152,-0.808 -0.309,-2.229 0.24,-2.64 0.025,0.614 0.136,1.144 0.48,1.439 0.138,-0.422 -0.29,-1.41 0.24,-1.439 0.86,0.114 1.387,0.39 2.16,0 -0.143,-0.498 0.296,-1.577 -0.24,-1.681 -0.4,0.478 0.022,0.306 0,0.96 -0.673,0.287 -1.656,0.264 -2.64,0.24 0.013,-0.307 0.308,-0.332 0.24,-0.72 -0.422,0.138 -1.41,-0.29 -1.44,0.239 1.212,-0.12 0.431,1.587 0.24,2.16 -0.554,-0.246 -1.277,-0.322 -1.2,-1.199 0.771,-0.2 0.498,-0.205 0.96,0.239 0.058,-0.341 0.395,-0.404 0.48,-0.719 z m -3.36,-2.16 c 0.576,-0.576 -0.788,-0.621 -0.72,-0.24 -0.003,-0.017 0.812,0.148 0.72,0.24 z m 2.88,-0.24 c -0.025,1.06 2.905,1.06 2.88,0 -0.509,-0.018 -2.232,-0.277 -2.88,0 z m -5.76,2.4 c -0.093,-0.627 -0.123,-1.316 -0.48,-1.68 0.041,0.679 -0.206,1.647 0.48,1.68 z m -36.48,0.96 c -0.312,-0.596 0.536,-1.165 0,-1.2 -0.277,0.361 -0.842,1.011 0,1.2 z m 40.56,1.68 c -0.884,-0.959 -2.829,-2.126 -3.84,-2.159 1.138,0.861 2.499,1.499 3.84,2.159 z m 5.04,-0.24 c 0.035,-0.596 0.045,-1.165 -0.48,-1.2 -0.57,0.255 0.515,1.105 -0.24,1.439 -0.579,0.099 -0.522,-0.438 -1.2,-0.239 0.041,0.358 -0.086,0.886 0.24,0.96 -0.073,-0.291 0.693,-0.828 0.72,-0.24 -0.077,0.563 -0.743,0.537 -0.96,0.96 0.981,-0.059 2.314,0.233 2.64,-0.48 -0.56,-0.358 -1.034,0.081 -1.2,-0.239 0.116,-0.284 0.256,-0.544 0.48,-0.721 0.343,0.058 0.405,0.396 0.72,0.48 -0.151,-0.729 0.307,-2.067 -0.24,-2.4 -0.093,0.627 -0.123,1.317 -0.48,1.68 z m 30,4.08 c 1.074,-0.605 0.192,-3.167 0.479,-4.561 -0.051,-0.27 -0.267,-0.374 -0.479,-0.479 -0.153,1.903 0.259,3.733 0,5.04 z m -22.8,-3.12 c 0.93,1.932 0.769,4.899 0.48,7.439 -0.5,0.46 -1,0.92 -1.2,1.681 0.214,0.141 1.369,0.504 0.72,0.72 -0.373,-0.055 -1.12,-0.923 -1.44,-0.24 0.718,0.882 0.712,2.487 2.16,2.64 -0.13,-0.93 1.393,-0.207 1.44,-0.96 -0.904,-0.136 -1.309,-0.771 -1.68,-1.439 0.991,-0.153 1.969,-0.689 2.88,-0.24 1.192,-2.884 0.53,-6.674 0.24,-9.6 -1.302,0.177 -2.495,-1.822 -4.8,-1.44 0.071,0.808 1.064,0.695 1.2,1.439 z M 41.76,138 c 1.598,1.877 5,0.08 5.04,-1.92 -0.359,-0.36 -0.429,-1.011 -0.96,-1.2 -0.307,2.093 -1.582,3.219 -4.08,3.12 z m 19.44,2.88 c 1.851,-0.832 1.851,-5.168 0,-6 0.342,2.213 -0.031,3.401 0,6 z m -14.64,0.48 c 0.703,-0.216 0.737,-0.216 1.44,0 0.413,-2.147 2.011,-3.109 2.64,-5.04 -0.739,0.179 -0.461,-0.659 -1.2,-0.48 -0.022,2.674 -3.573,2.911 -2.88,5.52 z m 4.8,-1.2 c 0.218,0.422 0.841,0.438 1.2,0.72 0.022,-1.237 0.596,-2.261 -0.24,-2.64 -0.273,0.687 -0.653,1.267 -0.96,1.92 z m 41.76,0.72 c -0.069,-0.358 -0.309,-1.733 -0.72,-0.96 0.636,-0.076 -0.224,1.345 0.72,0.96 z m -37.2,-0.96 c -1.234,0.58 0.826,0.62 0,0 z m 24.96,2.16 c 2.457,1.356 0.696,-0.512 -0.96,-0.72 0.131,0.349 -0.28,1.24 0.24,1.199 0.099,-0.3 0.31,-0.49 0.72,-0.479 z m 2.16,0.96 c 1.624,0.15 3.397,-0.046 4.8,-0.72 -1.823,0.666 -3.5,-0.579 -4.8,-0.24 0.947,0.233 0.704,0.683 0,0.96 z m 6,-0.72 c 0.425,-0.055 1.202,0.241 0.96,-0.48 h -0.96 z m -22.56,1.92 c 1.236,1.098 3.422,0.596 5.04,0.24 0.036,-0.597 -0.124,-0.996 -0.48,-1.2 -0.707,1.368 -4.546,-0.5 -4.56,0.96 z M 60,144.48 c 0.039,-0.168 -0.084,-1.397 -0.24,-0.721 -0.211,0.915 0.129,1.203 0.24,0.721 z m 34.56,0 c 0.317,0.002 0.22,0.42 0.48,0.479 0.053,-0.187 0.201,-0.279 0.479,-0.24 0.036,-0.596 -0.123,-0.996 -0.479,-1.2 -0.003,0.478 -0.655,0.306 -0.48,0.961 z M 81.6,145.2 c 0.099,-0.578 -0.438,-0.521 -0.239,-1.2 H 80.64 c -0.048,0.768 0.402,1.038 0.96,1.2 z m 4.32,1.92 c -0.146,-0.014 -0.284,-0.036 -0.24,-0.24 0.052,-1.229 1.244,-1.316 2.16,-1.68 -0.657,-0.218 0.469,-0.884 -0.479,-0.96 0.337,1.058 -0.79,0.65 -1.44,0.72 0.091,1.051 -0.686,1.234 -0.72,2.16 0.412,-0.095 0.614,0.357 0.719,0 z M 72,145.44 h 0.72 c 0.013,-0.413 -0.185,-0.616 -0.479,-0.721 0.009,0.332 -0.114,0.528 -0.241,0.721 z m -13.68,1.44 c 0.607,-0.673 2.815,0.255 3.12,-0.72 -0.815,0.099 -1.035,-0.578 -1.92,-0.96 0.286,1.098 -1.857,1.007 -1.2,1.68 z m -2.4,-0.24 c 0.43,0.226 1.334,1.205 1.92,0.48 -0.715,-0.085 -1.461,-0.139 -1.68,-0.72 0.626,-0.199 1.316,0.726 1.68,0 -0.843,0.042 -0.789,-0.812 -1.44,-0.96 0.037,0.597 -0.377,0.743 -0.48,1.2 z m 13.68,-1.2 c -0.498,0.143 -1.577,-0.297 -1.68,0.239 0.497,-0.142 1.577,0.298 1.68,-0.239 z m -2.4,0.72 c -0.457,-0.104 -0.603,-0.518 -1.2,-0.48 -0.484,0.912 1.091,0.952 1.2,0.48 z m 5.04,0 c 0.425,-0.055 1.201,0.242 0.96,-0.48 -0.547,-0.067 -0.902,0.058 -0.96,0.48 z m -3.6,0.24 c -0.133,0.15 -0.975,0.725 -0.24,0.96 -0.211,-0.771 0.791,-0.329 0.72,-0.96 -0.139,-0.211 -1.294,-0.761 -0.72,-0.24 0.146,0.014 0.284,0.036 0.24,0.24 z m 2.64,0 c 0.346,0.269 0.586,0.259 0.72,-0.24 -0.331,0.01 -0.527,-0.113 -0.72,-0.24 z m -1.2,0.72 c 0.454,-0.054 0.529,0.271 0.96,0.24 -0.028,-0.612 -0.045,-1.235 -0.72,-1.2 0.054,0.454 -0.271,0.529 -0.24,0.96 z m 22.8,0 h 0.72 v -0.72 h -0.72 z m -10.8,0.72 c 0.96,0.307 1.34,0.824 2.4,0.48 0.365,-0.749 -0.153,-1.033 -0.48,-1.681 0.645,1.954 -1.617,0.776 -1.92,1.201 z m 4.32,-0.72 c 0.425,-0.055 1.201,0.242 0.96,-0.48 -0.548,-0.067 -0.902,0.058 -0.96,0.48 z m 1.44,0.48 c 0.351,-0.209 0.93,-0.19 0.72,-0.96 -0.477,-0.049 -0.994,1.048 -0.72,0.96 z M 71.76,150 c -0.513,0.08 0.359,-0.466 0.48,0 v -0.48 c 0.146,-0.013 0.284,-0.035 0.24,-0.239 -1.429,0.114 -0.662,-0.72 -0.721,-1.681 -0.864,-0.359 -0.247,0.815 -0.48,1.2 -0.286,0.475 -1.121,0.703 -0.96,1.681 1.039,-0.52 0.823,-0.384 1.441,-0.481 z m 22.08,-2.4 c -0.349,0.132 -1.24,-0.28 -1.2,0.24 0.348,-0.131 1.241,0.28 1.2,-0.24 z m -37.92,1.2 c 0.03,-0.601 0.458,-0.751 -0.24,-0.96 0.041,0.359 -0.086,0.886 0.24,0.96 z m 3.84,-0.72 c -1.537,-0.277 -0.527,0.733 0,0 z m 12.96,1.44 c 0.796,-0.066 0.808,-1.222 0.24,-1.439 -0.452,0.372 0.345,0.935 -0.24,1.439 z m -15.36,-0.24 h 0.48 c 0.013,-0.308 0.308,-0.333 0.24,-0.721 -0.359,0.041 -0.886,-0.085 -0.96,0.24 0.187,0.054 0.279,0.202 0.24,0.481 z m 2.4,0.72 c -0.286,-0.514 -0.453,-1.147 -0.96,-1.44 -0.642,0.712 0.29,1.305 0.96,1.44 z m 22.08,-0.96 c 0.562,0.478 1.527,0.553 2.641,0.479 -0.293,-0.796 -2.213,-1.239 -2.641,-0.479 z m -12.72,2.16 c 0.008,-0.571 1.229,-1.146 0.48,-1.681 0.212,0.792 -1.175,1.2 -0.48,1.681 z m -14.88,-0.48 c 0.536,-0.104 0.855,-0.424 0.96,-0.96 -0.611,0.029 -0.93,0.349 -0.96,0.96 z M 84,150 c -1.537,-0.277 -0.527,0.733 0,0 z m -28.32,2.88 c 1.267,-0.073 0.916,-1.643 0.48,-2.399 -0.051,0.29 -0.267,0.147 -0.48,0 0.175,0.967 0.185,1.21 0,2.399 z m 5.04,-1.44 c 0.741,0.313 1.361,-0.682 0.72,-0.96 -0.239,0.321 -0.648,0.471 -0.72,0.96 z m 22.56,0.24 c -0.247,0.807 0.746,0.374 1.2,0.48 0.04,-0.388 0.805,-1.237 0.239,-1.44 -0.243,0.763 -0.464,1.55 -1.439,0.96 z m 8.64,-0.72 c 0.205,0.835 1.1,0.98 1.2,1.92 0.256,-0.624 0.3,-1.46 0.96,-1.68 -0.614,-0.189 -1.693,-0.637 -2.16,-0.24 z m -21.36,0.96 c 0.447,-0.033 0.802,-0.158 0.96,-0.479 -0.425,0.054 -1.202,-0.243 -0.96,0.479 z m -1.44,0 c -0.566,-0.309 -0.447,0.031 -1.2,-0.24 -0.37,0.724 1.242,0.632 1.2,0.24 z m 25.2,1.2 c -0.003,-0.353 0.091,-1.964 -0.24,-1.2 0.002,0.351 -0.091,1.964 0.24,1.2 z m 2.64,-0.24 c 0.061,-0.442 1.367,-0.842 0.72,-1.2 0,0.502 -1.307,0.902 -0.72,1.2 z m -5.04,0.24 c 0.031,-0.315 0.036,-1.736 -0.24,-0.96 -0.032,0.316 -0.036,1.736 0.24,0.96 z m -3.36,-0.72 c -1.717,1.227 0.504,-0.36 0,0 z m -4.08,0.24 c -0.35,0.132 -1.241,-0.28 -1.2,0.24 0.349,-0.131 1.241,0.28 1.2,-0.24 z m -1.2,0.72 c -0.058,-0.368 -0.396,-0.036 -0.48,0.239 0.613,0.386 3.137,-0.415 0.48,-0.239 z M 58.8,154.8 c 0.188,-0.166 0.534,-1.339 0,-1.439 0.26,0.614 -0.729,1.143 0,1.439 z m 11.76,-1.44 c -1.211,0.487 -2.734,-0.15 -3.6,0.239 0.871,0.271 3.091,0.57 3.6,-0.239 z m -11.04,1.2 c 0.454,-0.106 1.446,0.327 1.2,-0.479 -0.596,-0.037 -0.996,0.123 -1.2,0.479 z m 25.92,0.96 c -0.146,-0.494 0.387,-1.667 -0.48,-1.439 0.145,0.494 -0.388,1.666 0.48,1.439 z M 67.92,156 c 0.793,0.104 2.29,0.193 2.16,-0.24 -1.058,0.338 -0.65,-0.789 -0.72,-1.439 h -0.72 c 0.245,1.043 -0.496,1.103 -0.72,1.679 z m 14.88,-0.72 c 0.039,-0.167 -0.084,-1.397 -0.24,-0.721 -0.21,0.915 0.128,1.203 0.24,0.721 z m 1.44,0 c 0.312,-0.319 0.316,-0.894 -0.24,-0.96 -0.312,0.319 -0.316,0.893 0.24,0.96 z M 57.12,156 c 1.587,0.417 -1.942,-0.612 0,0 z m 10.32,0.72 c 1.145,0.335 2.777,0.39 3.36,-0.479 -0.859,0.42 -2.597,-0.038 -3.36,0.479 z m -8.88,1.92 c 0.029,-0.47 1.051,-1.896 0,-1.92 0.139,0.641 -0.71,1.5 0,1.92 z m 12.96,-0.24 c -0.317,-0.003 -0.219,-0.421 -0.48,-0.48 -0.585,0.278 0.268,1.131 0.48,0.48 z m -1.2,2.4 c 0.879,0.138 1.03,-1.83 0.24,-1.92 0.17,0.916 0.159,1.156 -0.24,1.92 z m -9.84,-1.68 c -1.088,0.365 -2.957,0.073 -3.6,0.24 0.947,0.679 2.838,0.544 3.6,-0.24 z m 0,3.12 c 0.356,-0.789 0.374,0.712 0.72,0.72 0.557,-0.732 -0.265,-1.69 -0.48,-2.4 0.112,0.615 -0.849,1.361 -0.24,1.68 z m 0,-1.68 c -0.596,-0.035 -0.996,0.124 -1.2,0.48 0.655,-0.175 0.483,0.477 0.96,0.479 -0.054,-0.453 0.27,-0.529 0.24,-0.959 z m -2.88,2.4 c 0.065,-0.327 -0.149,-0.937 -0.24,-0.479 -0.066,0.326 0.149,0.936 0.24,0.479 z m 0.48,0.96 c 0.454,-0.054 0.529,0.271 0.96,0.24 0.016,-0.389 1.026,-1.508 0,-1.44 0.299,1.019 -0.798,0.641 -0.96,1.2 z"
           fill-rule="evenodd"
           id="path1315"
           style="stroke:#c6c6c6;stroke-width:0;stroke-linejoin:round;stroke-dasharray:none;stroke-opacity:1;paint-order:markers stroke fill" /><path
           d="m 70.8,56.16 c 0.567,-0.526 -0.039,0.996 0,1.44 -0.729,-0.296 0.26,-0.825 0,-1.44 z"
           fill-rule="evenodd"
           id="path1317"
           style="stroke:#c6c6c6;stroke-width:0;stroke-linejoin:round;stroke-dasharray:none;stroke-opacity:1;paint-order:markers stroke fill" /><path
           d="m 66.24,57.84 c 0.279,0.039 0.427,-0.053 0.48,-0.24 0.214,0.5 0.016,1.394 0.72,1.92 -0.225,0.209 -1.139,-0.929 -1.2,-1.68 z"
           fill-rule="evenodd"
           id="path1319"
           style="stroke:#c6c6c6;stroke-width:0;stroke-linejoin:round;stroke-dasharray:none;stroke-opacity:1;paint-order:markers stroke fill" /><path
           d="m 70.32,58.08 c 0.561,-0.421 -0.197,1.406 -0.24,1.92 -0.56,0.421 0.197,-1.406 0.24,-1.92 z"
           fill-rule="evenodd"
           id="path1321"
           style="stroke:#c6c6c6;stroke-width:0;stroke-linejoin:round;stroke-dasharray:none;stroke-opacity:1;paint-order:markers stroke fill" /><path
           d="m 48.24,59.04 c 0.555,-0.549 -0.082,0.748 0,1.2 -0.703,-0.203 0.143,-0.773 0,-1.2 z"
           fill-rule="evenodd"
           id="path1323"
           style="stroke:#c6c6c6;stroke-width:0;stroke-linejoin:round;stroke-dasharray:none;stroke-opacity:1;paint-order:markers stroke fill" /><path
           d="m 66.96,60.24 c 0.555,0.727 -0.497,1.894 -0.48,2.88 -0.538,0.141 0.397,-2.075 0.48,-2.88 z"
           fill-rule="evenodd"
           id="path1325"
           style="stroke:#c6c6c6;stroke-width:0;stroke-linejoin:round;stroke-dasharray:none;stroke-opacity:1;paint-order:markers stroke fill" /><path
           d="m 47.76,60.72 c 0.561,-0.421 -0.197,1.406 -0.24,1.92 -0.561,0.421 0.198,-1.406 0.24,-1.92 z"
           fill-rule="evenodd"
           id="path1327"
           style="stroke:#c6c6c6;stroke-width:0;stroke-linejoin:round;stroke-dasharray:none;stroke-opacity:1;paint-order:markers stroke fill" /><path
           d="m 69.12,62.64 c 0.592,1.001 -0.583,2.291 -0.48,3.6 -0.612,-1.021 0.54,-2.334 0.48,-3.6 z"
           fill-rule="evenodd"
           id="path1329"
           style="stroke:#c6c6c6;stroke-width:0;stroke-linejoin:round;stroke-dasharray:none;stroke-opacity:1;paint-order:markers stroke fill" /><path
           d="m 48.96,66.96 c -1.054,-0.544 0.73,-1.625 0.48,-2.88 0.485,0.658 -0.395,1.996 -0.48,2.88 z"
           fill-rule="evenodd"
           id="path1331"
           style="stroke:#c6c6c6;stroke-width:0;stroke-linejoin:round;stroke-dasharray:none;stroke-opacity:1;paint-order:markers stroke fill" /><path
           d="m 66,63.84 c 0.59,-0.503 -0.177,0.858 0,1.44 -0.676,-0.242 0.066,-1.019 0,-1.44 z"
           fill-rule="evenodd"
           id="path1333"
           style="stroke:#c6c6c6;stroke-width:0;stroke-linejoin:round;stroke-dasharray:none;stroke-opacity:1;paint-order:markers stroke fill" /><path
           d="m 46.8,64.32 c 0.556,-0.549 -0.081,0.749 0,1.2 -0.703,-0.203 0.143,-0.773 0,-1.2 z"
           fill-rule="evenodd"
           id="path1335"
           style="stroke:#c6c6c6;stroke-width:0;stroke-linejoin:round;stroke-dasharray:none;stroke-opacity:1;paint-order:markers stroke fill" /><path
           d="m 65.52,65.76 c 0.556,-0.549 -0.082,0.749 0,1.2 -0.704,-0.203 0.144,-0.772 0,-1.2 z"
           fill-rule="evenodd"
           id="path1337"
           style="stroke:#c6c6c6;stroke-width:0;stroke-linejoin:round;stroke-dasharray:none;stroke-opacity:1;paint-order:markers stroke fill" /><path
           d="m 37.68,66.24 c 2.493,0.517 -1.658,-0.256 0,0 z"
           fill-rule="evenodd"
           id="path1339"
           style="stroke:#c6c6c6;stroke-width:0;stroke-linejoin:round;stroke-dasharray:none;stroke-opacity:1;paint-order:markers stroke fill" /><path
           d="m 68.16,66.72 c 0.556,-0.549 -0.082,0.748 0,1.2 -0.703,-0.203 0.144,-0.773 0,-1.2 z"
           fill-rule="evenodd"
           id="path1341"
           style="stroke:#c6c6c6;stroke-width:0;stroke-linejoin:round;stroke-dasharray:none;stroke-opacity:1;paint-order:markers stroke fill" /><path
           d="m 43.2,67.2 c -3.255,-0.651 2.862,0.572 0,0 z"
           fill-rule="evenodd"
           id="path1343"
           style="stroke:#c6c6c6;stroke-width:0;stroke-linejoin:round;stroke-dasharray:none;stroke-opacity:1;paint-order:markers stroke fill" /><path
           d="m 43.92,77.04 c 0.586,0.213 1.041,0.559 1.92,0.48 -0.316,0.455 -1.921,0.177 -1.92,-0.48 z"
           fill-rule="evenodd"
           id="path1345"
           style="stroke:#c6c6c6;stroke-width:0;stroke-linejoin:round;stroke-dasharray:none;stroke-opacity:1;paint-order:markers stroke fill" /><path
           d="m 46.32,78 c -0.452,-0.614 1.087,0.145 1.68,0 -0.363,0.726 -1.053,-0.199 -1.68,0 z"
           fill-rule="evenodd"
           id="path1347"
           style="stroke:#c6c6c6;stroke-width:0;stroke-linejoin:round;stroke-dasharray:none;stroke-opacity:1;paint-order:markers stroke fill" /><path
           d="m 50.88,78.96 c -0.452,-0.614 1.087,0.145 1.68,0 -0.363,0.726 -1.053,-0.199 -1.68,0 z"
           fill-rule="evenodd"
           id="path1349"
           style="stroke:#c6c6c6;stroke-width:0;stroke-linejoin:round;stroke-dasharray:none;stroke-opacity:1;paint-order:markers stroke fill" /><path
           d="m 20.64,89.52 c -1.163,0.517 -2.461,-0.894 -3.84,-0.96 1.142,-0.496 2.406,0.949 3.84,0.96 z"
           fill-rule="evenodd"
           id="path1351"
           style="stroke:#c6c6c6;stroke-width:0;stroke-linejoin:round;stroke-dasharray:none;stroke-opacity:1;paint-order:markers stroke fill" /><path
           d="m 10.56,85.92 c -0.632,0.593 -1.391,-0.692 0,0 z"
           fill-rule="evenodd"
           id="path1353"
           style="stroke:#c6c6c6;stroke-width:0;stroke-linejoin:round;stroke-dasharray:none;stroke-opacity:1;paint-order:markers stroke fill" /><path
           d="m 16.56,88.08 c -1.586,0.223 -3.719,-1.078 -5.28,-1.68 0.515,-0.213 3.658,1.28 5.28,1.68 z"
           fill-rule="evenodd"
           id="path1355"
           style="stroke:#c6c6c6;stroke-width:0;stroke-linejoin:round;stroke-dasharray:none;stroke-opacity:1;paint-order:markers stroke fill" /><path
           d="m 28.56,128.64 c -0.165,1.039 -2.656,1.821 -4.08,2.4 1.173,-0.587 1.709,-1.812 3.12,-2.16 -0.046,0.194 -0.241,0.239 -0.24,0.48 0.359,-0.281 0.982,-0.298 1.2,-0.72 z"
           fill-rule="evenodd"
           id="path1357"
           style="stroke:#c6c6c6;stroke-width:0;stroke-linejoin:round;stroke-dasharray:none;stroke-opacity:1;paint-order:markers stroke fill" /><path
           d="m 49.44,140.64 c 0.781,-0.214 2.236,0.959 3.12,1.44 1.069,-0.291 2.291,-0.43 3.36,-0.72 -0.385,1.055 -2.526,0.354 -3.12,1.199 -1.26,-0.498 -2.201,-1.318 -3.36,-1.919 z"
           fill-rule="evenodd"
           id="path1359"
           style="stroke:#c6c6c6;stroke-width:0;stroke-linejoin:round;stroke-dasharray:none;stroke-opacity:1;paint-order:markers stroke fill" /><path
           d="m 76.56,151.92 c 0.603,0.388 -0.426,1.155 -0.479,1.68 1.17,-0.749 1.639,-2.201 2.4,-3.359 0.082,2.084 -2.245,3.833 -3.841,5.04 0.107,-0.7 1.396,-2.281 1.92,-3.361 z"
           fill-rule="evenodd"
           id="path1361"
           style="stroke:#c6c6c6;stroke-width:0;stroke-linejoin:round;stroke-dasharray:none;stroke-opacity:1;paint-order:markers stroke fill" /></g><text
         xml:space="preserve"
         style="font-style:normal;font-variant:normal;font-weight:normal;font-stretch:normal;font-size:39.6103px;font-family:'Source Sans Pro';-inkscape-font-specification:'Source Sans Pro, Normal';font-variant-ligatures:normal;font-variant-caps:normal;font-variant-numeric:normal;font-variant-east-asian:normal;fill:#000000;stroke:#c6c6c6;stroke-width:0;stroke-linejoin:round;stroke-dasharray:none;stroke-opacity:1;paint-order:markers stroke fill"
         x="187.3985"
         y="198.45555"
         id="text1409"><tspan
           sodipodi:role="line"
           id="tspan1407"
           x="187.3985"
           y="198.45555"
           style="font-style:normal;font-variant:normal;font-weight:normal;font-stretch:normal;font-size:39.6103px;font-family:'Source Sans Pro';-inkscape-font-specification:'Source Sans Pro, Normal';font-variant-ligatures:normal;font-variant-caps:normal;font-variant-numeric:normal;font-variant-east-asian:normal;stroke:#c6c6c6;stroke-width:0;stroke-linejoin:round;stroke-dasharray:none;stroke-opacity:1;paint-order:markers stroke fill">trace generation</tspan></text></g></g></svg>
